<mxfile host="app.diagrams.net" agent="Mozilla/5.0 (X11; Linux x86_64) AppleWebKit/537.36 (KHTML, like Gecko) Chrome/131.0.0.0 Safari/537.36" version="26.0.2">
  <diagram name="Page-1" id="PuFN-wMOv0jWiG4jprAx">
    <mxGraphModel dx="1420" dy="824" grid="1" gridSize="10" guides="1" tooltips="1" connect="1" arrows="1" fold="1" page="1" pageScale="1" pageWidth="1800" pageHeight="1320" background="none" math="0" shadow="0">
      <root>
        <mxCell id="0" />
        <mxCell id="DKlUDa0g7rmCu-vv5rfz-316" value="Spellbook borders" style="locked=1;" parent="0" />
        <mxCell id="eY5dnLTpbY4zrGF3gSu3-124" value="" style="rounded=1;fontFamily=Helvetica;fontSize=11;fontColor=default;labelBackgroundColor=none;fillColor=#FCF4C4;strokeColor=#667788;opacity=30;glass=0;shadow=0;align=center;verticalAlign=middle;gradientColor=none;strokeWidth=2;" parent="DKlUDa0g7rmCu-vv5rfz-316" vertex="1">
          <mxGeometry x="1210" y="460" width="380" height="180" as="geometry" />
        </mxCell>
        <mxCell id="DKlUDa0g7rmCu-vv5rfz-317" value="" style="rounded=1;fontFamily=Helvetica;fontSize=11;fontColor=default;labelBackgroundColor=none;fillColor=#667788;strokeColor=#667788;opacity=30;glass=0;shadow=0;align=center;verticalAlign=middle;gradientColor=none;strokeWidth=2;" parent="DKlUDa0g7rmCu-vv5rfz-316" vertex="1">
          <mxGeometry x="10" y="220" width="1580" height="220" as="geometry" />
        </mxCell>
        <mxCell id="eY5dnLTpbY4zrGF3gSu3-125" value="Stellar Magic" style="text;align=center;verticalAlign=middle;whiteSpace=wrap;rounded=0;fontStyle=1;fontSize=16;fontFamily=Georgia;fontColor=#667788;strokeColor=none;" parent="DKlUDa0g7rmCu-vv5rfz-316" vertex="1">
          <mxGeometry x="1210" y="600" width="140" height="40" as="geometry" />
        </mxCell>
        <mxCell id="eY5dnLTpbY4zrGF3gSu3-127" value="" style="rounded=1;fontFamily=Helvetica;fontSize=11;fontColor=default;labelBackgroundColor=none;fillColor=#667788;strokeColor=#667788;opacity=30;glass=0;shadow=0;align=center;verticalAlign=middle;gradientColor=none;strokeWidth=2;" parent="DKlUDa0g7rmCu-vv5rfz-316" vertex="1">
          <mxGeometry x="410" y="660" width="1380" height="140" as="geometry" />
        </mxCell>
        <mxCell id="eY5dnLTpbY4zrGF3gSu3-128" value="" style="rounded=1;fontFamily=Helvetica;fontSize=11;fontColor=default;labelBackgroundColor=none;fillColor=#FCF4C4;strokeColor=#667788;opacity=30;glass=0;shadow=0;align=center;verticalAlign=middle;gradientColor=none;strokeWidth=2;" parent="DKlUDa0g7rmCu-vv5rfz-316" vertex="1">
          <mxGeometry x="210" y="820" width="990" height="230" as="geometry" />
        </mxCell>
        <mxCell id="eY5dnLTpbY4zrGF3gSu3-126" value="Perception" style="text;align=center;verticalAlign=middle;whiteSpace=wrap;rounded=0;fontStyle=1;fontSize=16;fontFamily=Georgia;fontColor=#667788;strokeColor=none;" parent="DKlUDa0g7rmCu-vv5rfz-316" vertex="1">
          <mxGeometry x="220" y="1010" width="140" height="40" as="geometry" />
        </mxCell>
        <mxCell id="eY5dnLTpbY4zrGF3gSu3-129" value="" style="rounded=1;fontFamily=Helvetica;fontSize=11;fontColor=default;labelBackgroundColor=none;fillColor=#667788;strokeColor=#667788;opacity=30;glass=0;shadow=0;align=center;verticalAlign=middle;gradientColor=none;strokeWidth=2;" parent="DKlUDa0g7rmCu-vv5rfz-316" vertex="1">
          <mxGeometry x="210" y="1070" width="1380" height="240" as="geometry" />
        </mxCell>
        <mxCell id="eY5dnLTpbY4zrGF3gSu3-130" value="Enlightened Geometry" style="text;align=center;verticalAlign=middle;whiteSpace=wrap;rounded=0;fontStyle=1;fontSize=16;fontFamily=Georgia;fontColor=#667788;strokeColor=none;" parent="DKlUDa0g7rmCu-vv5rfz-316" vertex="1">
          <mxGeometry x="630" y="750" width="140" height="40" as="geometry" />
        </mxCell>
        <mxCell id="eY5dnLTpbY4zrGF3gSu3-131" value="Moonlight Manipulation" style="text;align=center;verticalAlign=middle;whiteSpace=wrap;rounded=0;fontStyle=1;fontSize=16;fontFamily=Georgia;fontColor=#667788;strokeColor=none;" parent="DKlUDa0g7rmCu-vv5rfz-316" vertex="1">
          <mxGeometry x="10" y="400" width="140" height="40" as="geometry" />
        </mxCell>
        <mxCell id="eY5dnLTpbY4zrGF3gSu3-132" value="Psychic Projection" style="text;align=center;verticalAlign=middle;whiteSpace=wrap;rounded=0;fontStyle=1;fontSize=16;fontFamily=Georgia;fontColor=#667788;strokeColor=none;" parent="DKlUDa0g7rmCu-vv5rfz-316" vertex="1">
          <mxGeometry x="220" y="1260" width="140" height="40" as="geometry" />
        </mxCell>
        <mxCell id="eY5dnLTpbY4zrGF3gSu3-133" value="" style="rounded=1;fontFamily=Helvetica;fontSize=11;fontColor=default;labelBackgroundColor=none;fillColor=#FCF4C4;strokeColor=#667788;opacity=30;glass=0;shadow=0;align=center;verticalAlign=middle;gradientColor=none;strokeWidth=2;" parent="DKlUDa0g7rmCu-vv5rfz-316" vertex="1">
          <mxGeometry x="410" y="60" width="1180" height="140" as="geometry" />
        </mxCell>
        <mxCell id="ByqBd_FR368xJn7YFOeK-137" value="TeleologicÂ Sorcery" style="text;align=center;verticalAlign=middle;whiteSpace=wrap;rounded=0;fontStyle=1;fontSize=16;fontFamily=Georgia;fontColor=#667788;strokeColor=none;" parent="DKlUDa0g7rmCu-vv5rfz-316" vertex="1">
          <mxGeometry x="420" y="150" width="140" height="40" as="geometry" />
        </mxCell>
        <mxCell id="DKlUDa0g7rmCu-vv5rfz-14" value="Shapes and Lines" style="locked=1;" parent="0" />
        <mxCell id="A4h3zCrJcsYcp54G7Gio-6" style="edgeStyle=orthogonalEdgeStyle;rounded=1;orthogonalLoop=1;jettySize=auto;html=1;exitX=1;exitY=0.5;exitDx=0;exitDy=0;entryX=0;entryY=0.5;entryDx=0;entryDy=0;strokeColor=#667788;strokeWidth=2;align=center;verticalAlign=middle;fontFamily=Helvetica;fontSize=11;fontColor=default;labelBackgroundColor=default;endArrow=classic;curved=0;dashed=1;" parent="DKlUDa0g7rmCu-vv5rfz-14" source="DKlUDa0g7rmCu-vv5rfz-31" target="A4h3zCrJcsYcp54G7Gio-2" edge="1">
          <mxGeometry relative="1" as="geometry" />
        </mxCell>
        <mxCell id="A4h3zCrJcsYcp54G7Gio-10" style="edgeStyle=orthogonalEdgeStyle;shape=connector;curved=0;rounded=1;orthogonalLoop=1;jettySize=auto;html=1;exitX=1;exitY=0.5;exitDx=0;exitDy=0;dashed=1;strokeColor=#667788;strokeWidth=2;align=center;verticalAlign=middle;fontFamily=Helvetica;fontSize=11;fontColor=default;labelBackgroundColor=default;endArrow=none;endFill=0;entryX=1;entryY=0.5;entryDx=0;entryDy=0;" parent="DKlUDa0g7rmCu-vv5rfz-14" source="DKlUDa0g7rmCu-vv5rfz-31" target="A4h3zCrJcsYcp54G7Gio-1" edge="1">
          <mxGeometry relative="1" as="geometry">
            <mxPoint x="710" y="100" as="targetPoint" />
            <Array as="points">
              <mxPoint x="800" y="160" />
              <mxPoint x="800" y="100" />
            </Array>
          </mxGeometry>
        </mxCell>
        <mxCell id="DKlUDa0g7rmCu-vv5rfz-31" value="Tangled Fate" style="rounded=1;strokeWidth=1;strokeColor=#667788;textShadow=0;labelBackgroundColor=none;whiteSpace=wrap;fontSize=18;fontFamily=Georgia;fillColor=#EBCD00;fontColor=#000000;shadow=1;glass=0;align=center;verticalAlign=middle;fontStyle=1;resizable=1;gradientColor=#B3D56A;gradientDirection=east;" parent="DKlUDa0g7rmCu-vv5rfz-14" vertex="1">
          <mxGeometry x="620" y="140" width="160" height="40" as="geometry" />
        </mxCell>
        <mxCell id="A4h3zCrJcsYcp54G7Gio-5" style="edgeStyle=orthogonalEdgeStyle;rounded=1;orthogonalLoop=1;jettySize=auto;html=1;exitX=1;exitY=0.5;exitDx=0;exitDy=0;entryX=0;entryY=0.5;entryDx=0;entryDy=0;strokeWidth=2;strokeColor=#667788;curved=0;dashed=1;" parent="DKlUDa0g7rmCu-vv5rfz-14" source="A4h3zCrJcsYcp54G7Gio-1" edge="1">
          <mxGeometry relative="1" as="geometry">
            <mxPoint x="580" y="100" as="sourcePoint" />
            <mxPoint x="820" y="100" as="targetPoint" />
            <Array as="points">
              <mxPoint x="750" y="100" />
              <mxPoint x="750" y="100" />
            </Array>
          </mxGeometry>
        </mxCell>
        <mxCell id="A4h3zCrJcsYcp54G7Gio-9" style="edgeStyle=orthogonalEdgeStyle;shape=connector;curved=0;rounded=1;orthogonalLoop=1;jettySize=auto;html=1;exitX=1;exitY=0.5;exitDx=0;exitDy=0;dashed=1;strokeColor=#667788;strokeWidth=2;align=center;verticalAlign=middle;fontFamily=Helvetica;fontSize=11;fontColor=default;labelBackgroundColor=default;endArrow=none;endFill=0;entryX=1;entryY=0.5;entryDx=0;entryDy=0;" parent="DKlUDa0g7rmCu-vv5rfz-14" source="A4h3zCrJcsYcp54G7Gio-1" target="DKlUDa0g7rmCu-vv5rfz-31" edge="1">
          <mxGeometry relative="1" as="geometry">
            <mxPoint x="710" y="160" as="targetPoint" />
            <Array as="points">
              <mxPoint x="800" y="100" />
              <mxPoint x="800" y="160" />
            </Array>
          </mxGeometry>
        </mxCell>
        <mxCell id="A4h3zCrJcsYcp54G7Gio-8" style="edgeStyle=orthogonalEdgeStyle;shape=connector;curved=0;rounded=1;orthogonalLoop=1;jettySize=auto;html=1;exitX=1;exitY=0.5;exitDx=0;exitDy=0;entryX=0;entryY=0.5;entryDx=0;entryDy=0;dashed=1;strokeColor=#667788;strokeWidth=2;align=center;verticalAlign=middle;fontFamily=Helvetica;fontSize=11;fontColor=default;labelBackgroundColor=default;endArrow=classic;" parent="DKlUDa0g7rmCu-vv5rfz-14" source="A4h3zCrJcsYcp54G7Gio-2" target="A4h3zCrJcsYcp54G7Gio-4" edge="1">
          <mxGeometry relative="1" as="geometry">
            <Array as="points">
              <mxPoint x="1200" y="160" />
              <mxPoint x="1200" y="130" />
            </Array>
          </mxGeometry>
        </mxCell>
        <mxCell id="A4h3zCrJcsYcp54G7Gio-2" value="Tezirah&#39;s Veil" style="rounded=1;strokeWidth=1;strokeColor=#667788;textShadow=0;labelBackgroundColor=none;whiteSpace=wrap;fontSize=18;fontFamily=Georgia;fillColor=#AAC8EB;fontColor=#000000;shadow=1;glass=0;align=center;verticalAlign=middle;fontStyle=1;resizable=1;gradientColor=#EBCD00;gradientDirection=east;" parent="DKlUDa0g7rmCu-vv5rfz-14" vertex="1">
          <mxGeometry x="1020" y="140" width="160" height="40" as="geometry" />
        </mxCell>
        <mxCell id="eY5dnLTpbY4zrGF3gSu3-115" style="edgeStyle=orthogonalEdgeStyle;shape=connector;curved=0;rounded=1;orthogonalLoop=1;jettySize=auto;html=1;exitX=1;exitY=0.5;exitDx=0;exitDy=0;entryX=0;entryY=0.5;entryDx=0;entryDy=0;strokeColor=#667788;strokeWidth=2;align=center;verticalAlign=middle;fontFamily=Helvetica;fontSize=11;fontColor=default;labelBackgroundColor=default;endArrow=none;endFill=0;" parent="DKlUDa0g7rmCu-vv5rfz-14" source="A4h3zCrJcsYcp54G7Gio-3" target="eY5dnLTpbY4zrGF3gSu3-48" edge="1">
          <mxGeometry relative="1" as="geometry" />
        </mxCell>
        <mxCell id="A4h3zCrJcsYcp54G7Gio-3" value="Mental Blast" style="rounded=1;strokeWidth=1;strokeColor=#667788;textShadow=0;labelBackgroundColor=none;whiteSpace=wrap;fontSize=18;fontFamily=Georgia;fillColor=#EBCD00;fontColor=#000000;shadow=1;glass=0;align=center;verticalAlign=middle;fontStyle=1;resizable=1;" parent="DKlUDa0g7rmCu-vv5rfz-14" vertex="1">
          <mxGeometry x="1220" y="1160" width="160" height="40" as="geometry" />
        </mxCell>
        <mxCell id="A4h3zCrJcsYcp54G7Gio-4" value="Saesordian Compass" style="rounded=1;strokeWidth=1;strokeColor=#667788;textShadow=0;labelBackgroundColor=none;whiteSpace=wrap;fontSize=17;fontFamily=Georgia;fillColor=#AAC8EB;fontColor=#000000;shadow=1;glass=0;align=center;verticalAlign=middle;fontStyle=1;resizable=1;" parent="DKlUDa0g7rmCu-vv5rfz-14" vertex="1">
          <mxGeometry x="1420" y="110" width="160" height="40" as="geometry" />
        </mxCell>
        <mxCell id="eY5dnLTpbY4zrGF3gSu3-1" value="Read the Ripples" style="rounded=1;strokeWidth=1;strokeColor=#667788;textShadow=0;labelBackgroundColor=none;whiteSpace=wrap;fontSize=18;fontFamily=Georgia;fillColor=#B3D56A;fontColor=#000000;shadow=1;glass=0;align=center;verticalAlign=middle;fontStyle=1;resizable=1;gradientColor=none;gradientDirection=east;" parent="DKlUDa0g7rmCu-vv5rfz-14" vertex="1">
          <mxGeometry x="1420" y="580" width="160" height="40" as="geometry" />
        </mxCell>
        <mxCell id="eY5dnLTpbY4zrGF3gSu3-2" value="Invocation of the Spheres" style="rounded=1;strokeWidth=1;strokeColor=#667788;textShadow=0;labelBackgroundColor=none;whiteSpace=wrap;fontSize=17;fontFamily=Georgia;fillColor=#AAC8EB;fontColor=#000000;shadow=1;glass=0;align=center;verticalAlign=middle;fontStyle=1;resizable=1;spacing=0;" parent="DKlUDa0g7rmCu-vv5rfz-14" vertex="1">
          <mxGeometry x="1420" y="500" width="160" height="40" as="geometry" />
        </mxCell>
        <mxCell id="eY5dnLTpbY4zrGF3gSu3-3" value="Starlight Sphere" style="rounded=1;strokeWidth=1;strokeColor=#667788;textShadow=0;labelBackgroundColor=none;whiteSpace=wrap;fontSize=18;fontFamily=Georgia;fillColor=#E80538;fontColor=#FFFFFF;shadow=1;glass=0;align=center;verticalAlign=middle;fontStyle=1;resizable=1;gradientColor=none;gradientDirection=east;" parent="DKlUDa0g7rmCu-vv5rfz-14" vertex="1">
          <mxGeometry x="1220" y="480" width="160" height="40" as="geometry" />
        </mxCell>
        <mxCell id="eY5dnLTpbY4zrGF3gSu3-4" value="Shadewatch Mirror" style="rounded=1;strokeWidth=1;strokeColor=#667788;textShadow=0;labelBackgroundColor=none;whiteSpace=wrap;fontSize=18;fontFamily=Georgia;fillColor=#B3D56A;fontColor=#000000;shadow=1;glass=0;align=center;verticalAlign=middle;fontStyle=1;resizable=1;" parent="DKlUDa0g7rmCu-vv5rfz-14" vertex="1">
          <mxGeometry x="1220" y="560" width="160" height="40" as="geometry" />
        </mxCell>
        <mxCell id="eY5dnLTpbY4zrGF3gSu3-54" style="edgeStyle=orthogonalEdgeStyle;rounded=1;orthogonalLoop=1;jettySize=auto;html=1;exitX=1;exitY=0.5;exitDx=0;exitDy=0;entryX=0;entryY=0.5;entryDx=0;entryDy=0;endArrow=none;endFill=0;curved=0;strokeWidth=2;strokeColor=#667788;" parent="DKlUDa0g7rmCu-vv5rfz-14" source="eY5dnLTpbY4zrGF3gSu3-6" target="eY5dnLTpbY4zrGF3gSu3-7" edge="1">
          <mxGeometry relative="1" as="geometry" />
        </mxCell>
        <mxCell id="eY5dnLTpbY4zrGF3gSu3-55" style="edgeStyle=orthogonalEdgeStyle;shape=connector;curved=0;rounded=1;orthogonalLoop=1;jettySize=auto;html=1;exitX=1;exitY=0.5;exitDx=0;exitDy=0;entryX=0;entryY=0.5;entryDx=0;entryDy=0;strokeColor=#667788;strokeWidth=2;align=center;verticalAlign=middle;fontFamily=Helvetica;fontSize=11;fontColor=default;labelBackgroundColor=default;endArrow=none;endFill=0;" parent="DKlUDa0g7rmCu-vv5rfz-14" source="eY5dnLTpbY4zrGF3gSu3-6" target="eY5dnLTpbY4zrGF3gSu3-8" edge="1">
          <mxGeometry relative="1" as="geometry">
            <Array as="points">
              <mxPoint x="400" y="330" />
              <mxPoint x="400" y="260" />
            </Array>
          </mxGeometry>
        </mxCell>
        <mxCell id="eY5dnLTpbY4zrGF3gSu3-57" style="edgeStyle=orthogonalEdgeStyle;shape=connector;curved=0;rounded=1;orthogonalLoop=1;jettySize=auto;html=1;exitX=1;exitY=0.5;exitDx=0;exitDy=0;entryX=0;entryY=0.5;entryDx=0;entryDy=0;strokeColor=#667788;strokeWidth=2;align=center;verticalAlign=middle;fontFamily=Helvetica;fontSize=11;fontColor=default;labelBackgroundColor=default;endArrow=none;endFill=0;" parent="DKlUDa0g7rmCu-vv5rfz-14" source="eY5dnLTpbY4zrGF3gSu3-6" target="eY5dnLTpbY4zrGF3gSu3-10" edge="1">
          <mxGeometry relative="1" as="geometry">
            <Array as="points">
              <mxPoint x="290" y="330" />
              <mxPoint x="290" y="330" />
            </Array>
          </mxGeometry>
        </mxCell>
        <mxCell id="eY5dnLTpbY4zrGF3gSu3-6" value="Shadows" style="rounded=1;strokeWidth=1;strokeColor=#667788;textShadow=0;labelBackgroundColor=none;whiteSpace=wrap;fontSize=18;fontFamily=Georgia;fillColor=#AAC8EB;fontColor=#000000;shadow=1;glass=0;align=center;verticalAlign=middle;fontStyle=0;resizable=1;" parent="DKlUDa0g7rmCu-vv5rfz-14" vertex="1">
          <mxGeometry x="20" y="310" width="160" height="40" as="geometry" />
        </mxCell>
        <mxCell id="eY5dnLTpbY4zrGF3gSu3-56" style="edgeStyle=orthogonalEdgeStyle;shape=connector;curved=0;rounded=1;orthogonalLoop=1;jettySize=auto;html=1;exitX=1;exitY=0.5;exitDx=0;exitDy=0;entryX=0;entryY=0.5;entryDx=0;entryDy=0;strokeColor=#667788;strokeWidth=2;align=center;verticalAlign=middle;fontFamily=Helvetica;fontSize=11;fontColor=default;labelBackgroundColor=default;endArrow=none;endFill=0;" parent="DKlUDa0g7rmCu-vv5rfz-14" source="eY5dnLTpbY4zrGF3gSu3-7" target="eY5dnLTpbY4zrGF3gSu3-9" edge="1">
          <mxGeometry relative="1" as="geometry">
            <Array as="points">
              <mxPoint x="460" y="370" />
              <mxPoint x="460" y="370" />
            </Array>
          </mxGeometry>
        </mxCell>
        <mxCell id="eY5dnLTpbY4zrGF3gSu3-63" style="edgeStyle=orthogonalEdgeStyle;shape=connector;curved=0;rounded=1;orthogonalLoop=1;jettySize=auto;html=1;exitX=1;exitY=0.5;exitDx=0;exitDy=0;entryX=0.007;entryY=0.693;entryDx=0;entryDy=0;strokeColor=#667788;strokeWidth=2;align=center;verticalAlign=middle;fontFamily=Helvetica;fontSize=11;fontColor=default;labelBackgroundColor=default;endArrow=none;endFill=0;entryPerimeter=0;" parent="DKlUDa0g7rmCu-vv5rfz-14" source="eY5dnLTpbY4zrGF3gSu3-7" target="eY5dnLTpbY4zrGF3gSu3-14" edge="1">
          <mxGeometry relative="1" as="geometry">
            <Array as="points">
              <mxPoint x="400" y="370" />
              <mxPoint x="400" y="410" />
              <mxPoint x="820" y="410" />
              <mxPoint x="820" y="408" />
            </Array>
          </mxGeometry>
        </mxCell>
        <mxCell id="eY5dnLTpbY4zrGF3gSu3-71" style="edgeStyle=orthogonalEdgeStyle;shape=connector;curved=0;rounded=1;orthogonalLoop=1;jettySize=auto;html=1;exitX=1;exitY=0.5;exitDx=0;exitDy=0;entryX=0;entryY=0.25;entryDx=0;entryDy=0;strokeColor=#667788;strokeWidth=2;align=center;verticalAlign=middle;fontFamily=Helvetica;fontSize=11;fontColor=default;labelBackgroundColor=default;endArrow=none;endFill=0;" parent="DKlUDa0g7rmCu-vv5rfz-14" source="eY5dnLTpbY4zrGF3gSu3-7" target="eY5dnLTpbY4zrGF3gSu3-20" edge="1">
          <mxGeometry relative="1" as="geometry">
            <Array as="points">
              <mxPoint x="400" y="370" />
              <mxPoint x="400" y="650" />
              <mxPoint x="600" y="650" />
              <mxPoint x="600" y="690" />
            </Array>
          </mxGeometry>
        </mxCell>
        <mxCell id="eY5dnLTpbY4zrGF3gSu3-88" style="edgeStyle=orthogonalEdgeStyle;shape=connector;curved=0;rounded=1;orthogonalLoop=1;jettySize=auto;html=1;exitX=1;exitY=0.5;exitDx=0;exitDy=0;entryX=0;entryY=0.25;entryDx=0;entryDy=0;strokeColor=#667788;strokeWidth=2;align=center;verticalAlign=middle;fontFamily=Helvetica;fontSize=11;fontColor=default;labelBackgroundColor=default;endArrow=none;endFill=0;" parent="DKlUDa0g7rmCu-vv5rfz-14" source="eY5dnLTpbY4zrGF3gSu3-7" target="eY5dnLTpbY4zrGF3gSu3-35" edge="1">
          <mxGeometry relative="1" as="geometry">
            <Array as="points">
              <mxPoint x="400" y="370" />
              <mxPoint x="400" y="810" />
              <mxPoint x="600" y="810" />
              <mxPoint x="600" y="840" />
              <mxPoint x="620" y="840" />
            </Array>
          </mxGeometry>
        </mxCell>
        <mxCell id="eY5dnLTpbY4zrGF3gSu3-7" value="Focus Moonbeam" style="rounded=1;strokeWidth=1;strokeColor=#667788;textShadow=0;labelBackgroundColor=none;whiteSpace=wrap;fontSize=18;fontFamily=Georgia;fillColor=#B3D56A;fontColor=#000000;shadow=1;glass=0;align=center;verticalAlign=middle;fontStyle=1;resizable=1;" parent="DKlUDa0g7rmCu-vv5rfz-14" vertex="1">
          <mxGeometry x="220" y="350" width="160" height="40" as="geometry" />
        </mxCell>
        <mxCell id="eY5dnLTpbY4zrGF3gSu3-58" style="edgeStyle=orthogonalEdgeStyle;shape=connector;curved=0;rounded=1;orthogonalLoop=1;jettySize=auto;html=1;exitX=1;exitY=0.75;exitDx=0;exitDy=0;entryX=0;entryY=0.5;entryDx=0;entryDy=0;strokeColor=#667788;strokeWidth=2;align=center;verticalAlign=middle;fontFamily=Helvetica;fontSize=11;fontColor=default;labelBackgroundColor=default;endArrow=classic;endFill=1;dashed=1;" parent="DKlUDa0g7rmCu-vv5rfz-14" source="eY5dnLTpbY4zrGF3gSu3-8" target="eY5dnLTpbY4zrGF3gSu3-11" edge="1">
          <mxGeometry relative="1" as="geometry" />
        </mxCell>
        <mxCell id="eY5dnLTpbY4zrGF3gSu3-61" style="edgeStyle=orthogonalEdgeStyle;shape=connector;curved=0;rounded=1;orthogonalLoop=1;jettySize=auto;html=1;entryX=0;entryY=0.5;entryDx=0;entryDy=0;strokeColor=#667788;strokeWidth=2;align=center;verticalAlign=middle;fontFamily=Helvetica;fontSize=11;fontColor=default;labelBackgroundColor=default;endArrow=classic;endFill=1;dashed=1;" parent="DKlUDa0g7rmCu-vv5rfz-14" target="eY5dnLTpbY4zrGF3gSu3-15" edge="1">
          <mxGeometry relative="1" as="geometry">
            <mxPoint x="600" y="320" as="sourcePoint" />
            <Array as="points">
              <mxPoint x="600" y="330" />
            </Array>
          </mxGeometry>
        </mxCell>
        <mxCell id="eY5dnLTpbY4zrGF3gSu3-67" style="edgeStyle=orthogonalEdgeStyle;shape=connector;curved=0;rounded=1;orthogonalLoop=1;jettySize=auto;html=1;exitX=1;exitY=0.5;exitDx=0;exitDy=0;entryX=0;entryY=0.5;entryDx=0;entryDy=0;strokeColor=#667788;strokeWidth=2;align=center;verticalAlign=middle;fontFamily=Helvetica;fontSize=11;fontColor=default;labelBackgroundColor=default;endArrow=none;endFill=0;" parent="DKlUDa0g7rmCu-vv5rfz-14" source="eY5dnLTpbY4zrGF3gSu3-8" target="eY5dnLTpbY4zrGF3gSu3-13" edge="1">
          <mxGeometry relative="1" as="geometry" />
        </mxCell>
        <mxCell id="eY5dnLTpbY4zrGF3gSu3-121" style="edgeStyle=orthogonalEdgeStyle;shape=connector;curved=0;rounded=1;orthogonalLoop=1;jettySize=auto;html=1;exitX=1;exitY=0.25;exitDx=0;exitDy=0;entryX=0;entryY=0.5;entryDx=0;entryDy=0;strokeColor=#667788;strokeWidth=2;align=center;verticalAlign=middle;fontFamily=Helvetica;fontSize=11;fontColor=default;labelBackgroundColor=default;endArrow=none;endFill=0;dashed=1;" parent="DKlUDa0g7rmCu-vv5rfz-14" source="eY5dnLTpbY4zrGF3gSu3-8" target="eY5dnLTpbY4zrGF3gSu3-3" edge="1">
          <mxGeometry relative="1" as="geometry">
            <Array as="points">
              <mxPoint x="810" y="250" />
              <mxPoint x="810" y="500" />
            </Array>
          </mxGeometry>
        </mxCell>
        <mxCell id="eY5dnLTpbY4zrGF3gSu3-8" value="Dinazen Olkar" style="rounded=1;strokeWidth=1;strokeColor=#667788;textShadow=0;labelBackgroundColor=none;whiteSpace=wrap;fontSize=18;fontFamily=Georgia;fillColor=#E80538;fontColor=#FFFFFF;shadow=1;glass=0;align=center;verticalAlign=middle;fontStyle=0;resizable=1;gradientColor=none;gradientDirection=east;" parent="DKlUDa0g7rmCu-vv5rfz-14" vertex="1">
          <mxGeometry x="420" y="240" width="160" height="40" as="geometry" />
        </mxCell>
        <mxCell id="eY5dnLTpbY4zrGF3gSu3-69" style="edgeStyle=orthogonalEdgeStyle;shape=connector;curved=0;rounded=1;orthogonalLoop=1;jettySize=auto;html=1;exitX=1;exitY=0.5;exitDx=0;exitDy=0;entryX=0;entryY=0.5;entryDx=0;entryDy=0;strokeColor=#667788;strokeWidth=2;align=center;verticalAlign=middle;fontFamily=Helvetica;fontSize=11;fontColor=default;labelBackgroundColor=default;endArrow=none;endFill=0;" parent="DKlUDa0g7rmCu-vv5rfz-14" source="eY5dnLTpbY4zrGF3gSu3-9" target="eY5dnLTpbY4zrGF3gSu3-17" edge="1">
          <mxGeometry relative="1" as="geometry" />
        </mxCell>
        <mxCell id="eY5dnLTpbY4zrGF3gSu3-70" style="edgeStyle=orthogonalEdgeStyle;shape=connector;curved=0;rounded=1;orthogonalLoop=1;jettySize=auto;html=1;exitX=1;exitY=0.5;exitDx=0;exitDy=0;entryX=0;entryY=0.5;entryDx=0;entryDy=0;strokeColor=#667788;strokeWidth=2;align=center;verticalAlign=middle;fontFamily=Helvetica;fontSize=11;fontColor=default;labelBackgroundColor=default;endArrow=none;endFill=0;" parent="DKlUDa0g7rmCu-vv5rfz-14" source="eY5dnLTpbY4zrGF3gSu3-9" target="eY5dnLTpbY4zrGF3gSu3-12" edge="1">
          <mxGeometry relative="1" as="geometry">
            <Array as="points">
              <mxPoint x="1000" y="370" />
              <mxPoint x="1000" y="400" />
            </Array>
          </mxGeometry>
        </mxCell>
        <mxCell id="eY5dnLTpbY4zrGF3gSu3-120" style="edgeStyle=orthogonalEdgeStyle;shape=connector;curved=0;rounded=1;orthogonalLoop=1;jettySize=auto;html=1;exitX=1;exitY=0.75;exitDx=0;exitDy=0;strokeColor=#667788;strokeWidth=2;align=center;verticalAlign=middle;fontFamily=Helvetica;fontSize=11;fontColor=default;labelBackgroundColor=default;endArrow=none;endFill=0;dashed=1;" parent="DKlUDa0g7rmCu-vv5rfz-14" source="eY5dnLTpbY4zrGF3gSu3-9" edge="1">
          <mxGeometry relative="1" as="geometry">
            <Array as="points">
              <mxPoint x="810" y="380" />
            </Array>
            <mxPoint x="810" y="390" as="targetPoint" />
          </mxGeometry>
        </mxCell>
        <mxCell id="eY5dnLTpbY4zrGF3gSu3-9" value="Burn" style="rounded=1;strokeWidth=1;strokeColor=#667788;textShadow=0;labelBackgroundColor=none;whiteSpace=wrap;fontSize=18;fontFamily=Georgia;fillColor=#E80538;fontColor=#FFFFFF;shadow=1;glass=0;align=center;verticalAlign=middle;fontStyle=0;resizable=1;gradientColor=none;gradientDirection=east;" parent="DKlUDa0g7rmCu-vv5rfz-14" vertex="1">
          <mxGeometry x="620" y="350" width="160" height="40" as="geometry" />
        </mxCell>
        <mxCell id="eY5dnLTpbY4zrGF3gSu3-59" style="edgeStyle=orthogonalEdgeStyle;shape=connector;curved=0;rounded=1;orthogonalLoop=1;jettySize=auto;html=1;exitX=1;exitY=0.5;exitDx=0;exitDy=0;entryX=0;entryY=0.5;entryDx=0;entryDy=0;strokeColor=#667788;strokeWidth=2;align=center;verticalAlign=middle;fontFamily=Helvetica;fontSize=11;fontColor=default;labelBackgroundColor=default;endArrow=classic;endFill=1;dashed=1;" parent="DKlUDa0g7rmCu-vv5rfz-14" source="eY5dnLTpbY4zrGF3gSu3-10" target="eY5dnLTpbY4zrGF3gSu3-11" edge="1">
          <mxGeometry relative="1" as="geometry" />
        </mxCell>
        <mxCell id="Pr3LXegyoYwMrFUZYJ9y-6" style="edgeStyle=orthogonalEdgeStyle;shape=connector;curved=0;rounded=1;orthogonalLoop=1;jettySize=auto;html=1;exitX=1;exitY=0.5;exitDx=0;exitDy=0;entryX=0;entryY=0.25;entryDx=0;entryDy=0;strokeColor=#667788;strokeWidth=2;align=center;verticalAlign=middle;fontFamily=Helvetica;fontSize=11;fontColor=default;labelBackgroundColor=default;endArrow=classic;endFill=1;dashed=1;" parent="DKlUDa0g7rmCu-vv5rfz-14" source="eY5dnLTpbY4zrGF3gSu3-10" target="eY5dnLTpbY4zrGF3gSu3-9" edge="1">
          <mxGeometry relative="1" as="geometry" />
        </mxCell>
        <mxCell id="eY5dnLTpbY4zrGF3gSu3-10" value="Dazzle" style="rounded=1;strokeWidth=1;strokeColor=#667788;textShadow=0;labelBackgroundColor=none;whiteSpace=wrap;fontSize=18;fontFamily=Georgia;fillColor=#EBCD00;fontColor=#000000;shadow=1;glass=0;align=center;verticalAlign=middle;fontStyle=0;resizable=1;" parent="DKlUDa0g7rmCu-vv5rfz-14" vertex="1">
          <mxGeometry x="420" y="310" width="160" height="40" as="geometry" />
        </mxCell>
        <mxCell id="eY5dnLTpbY4zrGF3gSu3-64" style="edgeStyle=orthogonalEdgeStyle;shape=connector;curved=0;rounded=1;orthogonalLoop=1;jettySize=auto;html=1;exitX=1;exitY=0.5;exitDx=0;exitDy=0;entryX=0;entryY=0.5;entryDx=0;entryDy=0;strokeColor=#667788;strokeWidth=2;align=center;verticalAlign=middle;fontFamily=Helvetica;fontSize=11;fontColor=default;labelBackgroundColor=default;endArrow=none;endFill=0;" parent="DKlUDa0g7rmCu-vv5rfz-14" source="eY5dnLTpbY4zrGF3gSu3-11" target="eY5dnLTpbY4zrGF3gSu3-16" edge="1">
          <mxGeometry relative="1" as="geometry" />
        </mxCell>
        <mxCell id="eY5dnLTpbY4zrGF3gSu3-11" value="Refractive Field" style="rounded=1;strokeWidth=1;strokeColor=#667788;textShadow=0;labelBackgroundColor=none;whiteSpace=wrap;fontSize=18;fontFamily=Georgia;fillColor=#B3D56A;fontColor=#000000;shadow=1;glass=0;align=center;verticalAlign=middle;fontStyle=1;resizable=1;" parent="DKlUDa0g7rmCu-vv5rfz-14" vertex="1">
          <mxGeometry x="620" y="270" width="160" height="40" as="geometry" />
        </mxCell>
        <mxCell id="eY5dnLTpbY4zrGF3gSu3-13" value="Shadow Web" style="rounded=1;strokeWidth=1;strokeColor=#667788;textShadow=0;labelBackgroundColor=none;whiteSpace=wrap;fontSize=18;fontFamily=Georgia;fillColor=#EBCD00;fontColor=#000000;shadow=1;glass=0;align=center;verticalAlign=middle;fontStyle=1;resizable=1;" parent="DKlUDa0g7rmCu-vv5rfz-14" vertex="1">
          <mxGeometry x="1020" y="240" width="160" height="40" as="geometry" />
        </mxCell>
        <mxCell id="eY5dnLTpbY4zrGF3gSu3-14" value="Shift Moonbeam" style="rounded=1;strokeWidth=1;strokeColor=#667788;textShadow=0;labelBackgroundColor=none;whiteSpace=wrap;fontSize=18;fontFamily=Georgia;fillColor=#B3D56A;fontColor=#000000;shadow=1;glass=0;align=center;verticalAlign=middle;fontStyle=1;resizable=1;" parent="DKlUDa0g7rmCu-vv5rfz-14" vertex="1">
          <mxGeometry x="820" y="380" width="160" height="40" as="geometry" />
        </mxCell>
        <mxCell id="eY5dnLTpbY4zrGF3gSu3-66" style="edgeStyle=orthogonalEdgeStyle;shape=connector;curved=0;rounded=1;orthogonalLoop=1;jettySize=auto;html=1;exitX=1;exitY=0.5;exitDx=0;exitDy=0;entryX=0;entryY=0.5;entryDx=0;entryDy=0;strokeColor=#667788;strokeWidth=2;align=center;verticalAlign=middle;fontFamily=Helvetica;fontSize=11;fontColor=default;labelBackgroundColor=default;endArrow=none;endFill=0;" parent="DKlUDa0g7rmCu-vv5rfz-14" source="eY5dnLTpbY4zrGF3gSu3-15" target="eY5dnLTpbY4zrGF3gSu3-18" edge="1">
          <mxGeometry relative="1" as="geometry" />
        </mxCell>
        <mxCell id="eY5dnLTpbY4zrGF3gSu3-108" style="edgeStyle=orthogonalEdgeStyle;shape=connector;curved=0;rounded=1;orthogonalLoop=1;jettySize=auto;html=1;exitX=1;exitY=0.5;exitDx=0;exitDy=0;entryX=0;entryY=0.5;entryDx=0;entryDy=0;strokeColor=#667788;strokeWidth=2;align=center;verticalAlign=middle;fontFamily=Helvetica;fontSize=11;fontColor=default;labelBackgroundColor=default;endArrow=none;endFill=0;jumpStyle=arc;" parent="DKlUDa0g7rmCu-vv5rfz-14" source="eY5dnLTpbY4zrGF3gSu3-15" target="eY5dnLTpbY4zrGF3gSu3-106" edge="1">
          <mxGeometry relative="1" as="geometry">
            <Array as="points">
              <mxPoint x="1410" y="330" />
              <mxPoint x="1410" y="1110" />
            </Array>
          </mxGeometry>
        </mxCell>
        <mxCell id="eY5dnLTpbY4zrGF3gSu3-15" value="Moonblade" style="rounded=1;strokeWidth=1;strokeColor=#667788;textShadow=0;labelBackgroundColor=none;whiteSpace=wrap;fontSize=18;fontFamily=Georgia;fillColor=#B3D56A;fontColor=#000000;shadow=1;glass=0;align=center;verticalAlign=middle;fontStyle=1;resizable=1;" parent="DKlUDa0g7rmCu-vv5rfz-14" vertex="1">
          <mxGeometry x="1020" y="310" width="160" height="40" as="geometry" />
        </mxCell>
        <mxCell id="eY5dnLTpbY4zrGF3gSu3-16" value="Steps of Vuan" style="rounded=1;strokeWidth=1;strokeColor=#667788;textShadow=0;labelBackgroundColor=none;whiteSpace=wrap;fontSize=18;fontFamily=Georgia;fillColor=#B3D56A;fontColor=#000000;shadow=1;glass=0;align=center;verticalAlign=middle;fontStyle=1;resizable=1;" parent="DKlUDa0g7rmCu-vv5rfz-14" vertex="1">
          <mxGeometry x="820" y="270" width="160" height="40" as="geometry" />
        </mxCell>
        <mxCell id="eY5dnLTpbY4zrGF3gSu3-17" value="Iyqaromos Fire-Lens" style="rounded=1;whiteSpace=wrap;fillColor=#D5D0CA;labelBackgroundColor=none;movable=1;resizable=1;rotatable=1;deletable=1;editable=1;locked=0;connectable=1;container=0;fontFamily=Georgia;fontSize=18;strokeColor=#667788;shadow=0;glass=0;strokeWidth=1;align=center;fontStyle=1;verticalAlign=middle;fontColor=#000000;textShadow=0;" parent="DKlUDa0g7rmCu-vv5rfz-14" vertex="1">
          <mxGeometry x="1220" y="350" width="160" height="40" as="geometry" />
        </mxCell>
        <mxCell id="eY5dnLTpbY4zrGF3gSu3-18" value="Shape Moonblade" style="rounded=1;whiteSpace=wrap;fillColor=#D5D0CA;labelBackgroundColor=none;movable=1;resizable=1;rotatable=1;deletable=1;editable=1;locked=0;connectable=1;container=0;fontFamily=Georgia;fontSize=18;strokeColor=#667788;shadow=0;glass=0;strokeWidth=1;align=center;fontStyle=1;verticalAlign=middle;fontColor=#000000;textShadow=0;" parent="DKlUDa0g7rmCu-vv5rfz-14" vertex="1">
          <mxGeometry x="1420" y="310" width="160" height="40" as="geometry" />
        </mxCell>
        <mxCell id="eY5dnLTpbY4zrGF3gSu3-19" value="Partial Displacement" style="rounded=1;strokeWidth=1;strokeColor=#667788;textShadow=0;labelBackgroundColor=none;whiteSpace=wrap;fontSize=18;fontFamily=Georgia;fillColor=#E80538;fontColor=#FFFFFF;shadow=1;glass=0;align=center;verticalAlign=middle;fontStyle=0;resizable=1;gradientColor=none;gradientDirection=east;" parent="DKlUDa0g7rmCu-vv5rfz-14" vertex="1">
          <mxGeometry x="420" y="680" width="160" height="40" as="geometry" />
        </mxCell>
        <mxCell id="eY5dnLTpbY4zrGF3gSu3-75" style="edgeStyle=orthogonalEdgeStyle;shape=connector;curved=0;rounded=1;orthogonalLoop=1;jettySize=auto;html=1;exitX=1;exitY=0.5;exitDx=0;exitDy=0;entryX=0;entryY=0.5;entryDx=0;entryDy=0;strokeColor=#667788;strokeWidth=2;align=center;verticalAlign=middle;fontFamily=Helvetica;fontSize=11;fontColor=default;labelBackgroundColor=default;endArrow=none;endFill=0;" parent="DKlUDa0g7rmCu-vv5rfz-14" source="eY5dnLTpbY4zrGF3gSu3-20" target="eY5dnLTpbY4zrGF3gSu3-23" edge="1">
          <mxGeometry relative="1" as="geometry" />
        </mxCell>
        <mxCell id="eY5dnLTpbY4zrGF3gSu3-76" style="edgeStyle=orthogonalEdgeStyle;shape=connector;curved=0;rounded=1;orthogonalLoop=1;jettySize=auto;html=1;exitX=1;exitY=0.5;exitDx=0;exitDy=0;entryX=0;entryY=0.5;entryDx=0;entryDy=0;strokeColor=#667788;strokeWidth=2;align=center;verticalAlign=middle;fontFamily=Helvetica;fontSize=11;fontColor=default;labelBackgroundColor=default;endArrow=none;endFill=0;" parent="DKlUDa0g7rmCu-vv5rfz-14" source="eY5dnLTpbY4zrGF3gSu3-20" target="eY5dnLTpbY4zrGF3gSu3-24" edge="1">
          <mxGeometry relative="1" as="geometry" />
        </mxCell>
        <mxCell id="eY5dnLTpbY4zrGF3gSu3-20" value="Teleport" style="rounded=1;strokeWidth=1;strokeColor=#667788;textShadow=0;labelBackgroundColor=none;whiteSpace=wrap;fontSize=18;fontFamily=Georgia;fillColor=#B3D56A;fontColor=#000000;shadow=1;glass=0;align=center;verticalAlign=middle;fontStyle=1;resizable=1;" parent="DKlUDa0g7rmCu-vv5rfz-14" vertex="1">
          <mxGeometry x="620" y="680" width="160" height="40" as="geometry" />
        </mxCell>
        <mxCell id="eY5dnLTpbY4zrGF3gSu3-74" style="edgeStyle=orthogonalEdgeStyle;shape=connector;curved=0;rounded=1;orthogonalLoop=1;jettySize=auto;html=1;exitX=1;exitY=0.5;exitDx=0;exitDy=0;entryX=0;entryY=0.5;entryDx=0;entryDy=0;strokeColor=#667788;strokeWidth=2;align=center;verticalAlign=middle;fontFamily=Helvetica;fontSize=11;fontColor=default;labelBackgroundColor=default;endArrow=none;endFill=0;dashed=1;" parent="DKlUDa0g7rmCu-vv5rfz-14" source="eY5dnLTpbY4zrGF3gSu3-21" target="eY5dnLTpbY4zrGF3gSu3-20" edge="1">
          <mxGeometry relative="1" as="geometry" />
        </mxCell>
        <mxCell id="eY5dnLTpbY4zrGF3gSu3-21" value="Whole Displacement" style="rounded=1;whiteSpace=wrap;fillColor=#147A6D;labelBackgroundColor=none;movable=1;resizable=1;rotatable=1;deletable=1;editable=1;locked=0;connectable=1;container=0;fontFamily=Georgia;fontSize=17;strokeColor=#667788;shadow=1;glass=0;strokeWidth=1;align=center;fontStyle=1;verticalAlign=middle;fontColor=#FFFFFF;textShadow=0;" parent="DKlUDa0g7rmCu-vv5rfz-14" vertex="1">
          <mxGeometry x="420" y="740" width="160" height="40" as="geometry" />
        </mxCell>
        <mxCell id="eY5dnLTpbY4zrGF3gSu3-80" style="edgeStyle=orthogonalEdgeStyle;shape=connector;curved=0;rounded=1;orthogonalLoop=1;jettySize=auto;html=1;exitX=1;exitY=0.5;exitDx=0;exitDy=0;entryX=0;entryY=0.5;entryDx=0;entryDy=0;strokeColor=#667788;strokeWidth=2;align=center;verticalAlign=middle;fontFamily=Helvetica;fontSize=11;fontColor=default;labelBackgroundColor=default;endArrow=none;endFill=0;" parent="DKlUDa0g7rmCu-vv5rfz-14" source="eY5dnLTpbY4zrGF3gSu3-22" target="eY5dnLTpbY4zrGF3gSu3-29" edge="1">
          <mxGeometry relative="1" as="geometry" />
        </mxCell>
        <mxCell id="eY5dnLTpbY4zrGF3gSu3-22" value="Braun&#39;s Conjecture" style="rounded=1;strokeWidth=1;strokeColor=#667788;textShadow=0;labelBackgroundColor=none;whiteSpace=wrap;fontSize=18;fontFamily=Georgia;fillColor=#B3D56A;fontColor=#000000;shadow=1;glass=0;align=center;verticalAlign=middle;fontStyle=1;resizable=1;" parent="DKlUDa0g7rmCu-vv5rfz-14" vertex="1">
          <mxGeometry x="1020" y="680" width="160" height="40" as="geometry" />
        </mxCell>
        <mxCell id="eY5dnLTpbY4zrGF3gSu3-78" style="edgeStyle=orthogonalEdgeStyle;shape=connector;curved=0;rounded=1;orthogonalLoop=1;jettySize=auto;html=1;exitX=1;exitY=0.5;exitDx=0;exitDy=0;entryX=0;entryY=0.5;entryDx=0;entryDy=0;strokeColor=#667788;strokeWidth=2;align=center;verticalAlign=middle;fontFamily=Helvetica;fontSize=11;fontColor=default;labelBackgroundColor=default;endArrow=none;endFill=0;" parent="DKlUDa0g7rmCu-vv5rfz-14" source="eY5dnLTpbY4zrGF3gSu3-23" target="eY5dnLTpbY4zrGF3gSu3-22" edge="1">
          <mxGeometry relative="1" as="geometry" />
        </mxCell>
        <mxCell id="eY5dnLTpbY4zrGF3gSu3-79" style="edgeStyle=orthogonalEdgeStyle;shape=connector;curved=0;rounded=1;orthogonalLoop=1;jettySize=auto;html=1;exitX=1;exitY=0.5;exitDx=0;exitDy=0;entryX=0;entryY=0.5;entryDx=0;entryDy=0;strokeColor=#667788;strokeWidth=2;align=center;verticalAlign=middle;fontFamily=Helvetica;fontSize=11;fontColor=default;labelBackgroundColor=default;endArrow=none;endFill=0;" parent="DKlUDa0g7rmCu-vv5rfz-14" source="eY5dnLTpbY4zrGF3gSu3-23" target="eY5dnLTpbY4zrGF3gSu3-25" edge="1">
          <mxGeometry relative="1" as="geometry" />
        </mxCell>
        <mxCell id="eY5dnLTpbY4zrGF3gSu3-81" style="edgeStyle=orthogonalEdgeStyle;shape=connector;curved=0;rounded=1;orthogonalLoop=1;jettySize=auto;html=1;exitX=1;exitY=0.5;exitDx=0;exitDy=0;entryX=0;entryY=0.5;entryDx=0;entryDy=0;strokeColor=#667788;strokeWidth=2;align=center;verticalAlign=middle;fontFamily=Helvetica;fontSize=11;fontColor=default;labelBackgroundColor=default;endArrow=none;endFill=0;" parent="DKlUDa0g7rmCu-vv5rfz-14" source="eY5dnLTpbY4zrGF3gSu3-23" target="eY5dnLTpbY4zrGF3gSu3-26" edge="1">
          <mxGeometry relative="1" as="geometry">
            <Array as="points">
              <mxPoint x="1000" y="700" />
              <mxPoint x="1000" y="730" />
              <mxPoint x="1200" y="730" />
              <mxPoint x="1200" y="760" />
            </Array>
          </mxGeometry>
        </mxCell>
        <mxCell id="eY5dnLTpbY4zrGF3gSu3-82" style="edgeStyle=orthogonalEdgeStyle;shape=connector;curved=0;rounded=1;orthogonalLoop=1;jettySize=auto;html=1;exitX=1;exitY=0.5;exitDx=0;exitDy=0;entryX=0;entryY=0.5;entryDx=0;entryDy=0;strokeColor=#667788;strokeWidth=2;align=center;verticalAlign=middle;fontFamily=Helvetica;fontSize=11;fontColor=default;labelBackgroundColor=default;endArrow=none;endFill=0;" parent="DKlUDa0g7rmCu-vv5rfz-14" source="eY5dnLTpbY4zrGF3gSu3-23" target="eY5dnLTpbY4zrGF3gSu3-28" edge="1">
          <mxGeometry relative="1" as="geometry">
            <Array as="points">
              <mxPoint x="1000" y="700" />
              <mxPoint x="1000" y="730" />
            </Array>
          </mxGeometry>
        </mxCell>
        <mxCell id="eY5dnLTpbY4zrGF3gSu3-117" style="edgeStyle=orthogonalEdgeStyle;shape=connector;curved=0;rounded=1;orthogonalLoop=1;jettySize=auto;html=1;exitX=1;exitY=0.25;exitDx=0;exitDy=0;entryX=0;entryY=0.5;entryDx=0;entryDy=0;strokeColor=#667788;strokeWidth=2;align=center;verticalAlign=middle;fontFamily=Helvetica;fontSize=11;fontColor=default;labelBackgroundColor=default;endArrow=none;endFill=0;" parent="DKlUDa0g7rmCu-vv5rfz-14" source="eY5dnLTpbY4zrGF3gSu3-23" target="eY5dnLTpbY4zrGF3gSu3-2" edge="1">
          <mxGeometry relative="1" as="geometry">
            <Array as="points">
              <mxPoint x="990" y="690" />
              <mxPoint x="990" y="650" />
              <mxPoint x="1390" y="650" />
              <mxPoint x="1390" y="520" />
            </Array>
          </mxGeometry>
        </mxCell>
        <mxCell id="eY5dnLTpbY4zrGF3gSu3-23" value="Moongate" style="rounded=1;strokeWidth=1;strokeColor=#667788;textShadow=0;labelBackgroundColor=none;whiteSpace=wrap;fontSize=18;fontFamily=Georgia;fillColor=#B3D56A;fontColor=#000000;shadow=1;glass=0;align=center;verticalAlign=middle;fontStyle=1;resizable=1;" parent="DKlUDa0g7rmCu-vv5rfz-14" vertex="1">
          <mxGeometry x="820" y="680" width="160" height="40" as="geometry" />
        </mxCell>
        <mxCell id="eY5dnLTpbY4zrGF3gSu3-24" value="Contingency" style="rounded=1;strokeWidth=1;strokeColor=#667788;textShadow=0;labelBackgroundColor=none;whiteSpace=wrap;fontSize=18;fontFamily=Georgia;fillColor=#B3D56A;fontColor=#000000;shadow=1;glass=0;align=center;verticalAlign=middle;fontStyle=1;resizable=1;" parent="DKlUDa0g7rmCu-vv5rfz-14" vertex="1">
          <mxGeometry x="820" y="740" width="160" height="40" as="geometry" />
        </mxCell>
        <mxCell id="eY5dnLTpbY4zrGF3gSu3-25" value="Shadowling" style="rounded=1;strokeWidth=1;strokeColor=#667788;textShadow=0;labelBackgroundColor=none;whiteSpace=wrap;fontSize=18;fontFamily=Georgia;fillColor=#B3D56A;fontColor=#000000;shadow=1;glass=0;align=center;verticalAlign=middle;fontStyle=1;resizable=1;" parent="DKlUDa0g7rmCu-vv5rfz-14" vertex="1">
          <mxGeometry x="1020" y="740" width="160" height="40" as="geometry" />
        </mxCell>
        <mxCell id="eY5dnLTpbY4zrGF3gSu3-26" value="Shadow Servant" style="rounded=1;strokeWidth=1;strokeColor=#667788;textShadow=0;labelBackgroundColor=none;whiteSpace=wrap;fontSize=18;fontFamily=Georgia;fillColor=#B3D56A;fontColor=#000000;shadow=1;glass=0;align=center;verticalAlign=middle;fontStyle=1;resizable=1;" parent="DKlUDa0g7rmCu-vv5rfz-14" vertex="1">
          <mxGeometry x="1220" y="740" width="160" height="40" as="geometry" />
        </mxCell>
        <mxCell id="eY5dnLTpbY4zrGF3gSu3-28" value="Riftal Summons" style="rounded=1;strokeWidth=1;strokeColor=#667788;textShadow=0;labelBackgroundColor=none;whiteSpace=wrap;fontSize=18;fontFamily=Georgia;fillColor=#B3D56A;fontColor=#000000;shadow=1;glass=0;align=center;verticalAlign=middle;fontStyle=1;resizable=1;" parent="DKlUDa0g7rmCu-vv5rfz-14" vertex="1">
          <mxGeometry x="1620" y="710" width="160" height="40" as="geometry" />
        </mxCell>
        <mxCell id="eY5dnLTpbY4zrGF3gSu3-29" value="Ripplegate Theory" style="rounded=1;whiteSpace=wrap;fillColor=#D5D0CA;labelBackgroundColor=none;movable=1;resizable=1;rotatable=1;deletable=1;editable=1;locked=0;connectable=1;container=0;fontFamily=Georgia;fontSize=18;strokeColor=#667788;shadow=0;glass=0;strokeWidth=1;align=center;fontStyle=1;verticalAlign=middle;fontColor=#000000;textShadow=0;" parent="DKlUDa0g7rmCu-vv5rfz-14" vertex="1">
          <mxGeometry x="1220" y="680" width="160" height="40" as="geometry" />
        </mxCell>
        <mxCell id="eY5dnLTpbY4zrGF3gSu3-84" style="edgeStyle=orthogonalEdgeStyle;shape=connector;curved=0;rounded=1;orthogonalLoop=1;jettySize=auto;html=1;exitX=1;exitY=0.5;exitDx=0;exitDy=0;entryX=0;entryY=0.5;entryDx=0;entryDy=0;strokeColor=#667788;strokeWidth=2;align=center;verticalAlign=middle;fontFamily=Helvetica;fontSize=11;fontColor=default;labelBackgroundColor=default;endArrow=none;endFill=0;" parent="DKlUDa0g7rmCu-vv5rfz-14" source="eY5dnLTpbY4zrGF3gSu3-30" target="eY5dnLTpbY4zrGF3gSu3-34" edge="1">
          <mxGeometry relative="1" as="geometry" />
        </mxCell>
        <mxCell id="eY5dnLTpbY4zrGF3gSu3-85" style="edgeStyle=orthogonalEdgeStyle;shape=connector;curved=0;rounded=1;orthogonalLoop=1;jettySize=auto;html=1;exitX=1;exitY=0.5;exitDx=0;exitDy=0;entryX=0;entryY=0.5;entryDx=0;entryDy=0;strokeColor=#667788;strokeWidth=2;align=center;verticalAlign=middle;fontFamily=Helvetica;fontSize=11;fontColor=default;labelBackgroundColor=default;endArrow=none;endFill=0;" parent="DKlUDa0g7rmCu-vv5rfz-14" source="eY5dnLTpbY4zrGF3gSu3-30" target="eY5dnLTpbY4zrGF3gSu3-31" edge="1">
          <mxGeometry relative="1" as="geometry" />
        </mxCell>
        <mxCell id="eY5dnLTpbY4zrGF3gSu3-86" style="edgeStyle=orthogonalEdgeStyle;shape=connector;curved=0;rounded=1;orthogonalLoop=1;jettySize=auto;html=1;exitX=1;exitY=0.5;exitDx=0;exitDy=0;entryX=0;entryY=0.5;entryDx=0;entryDy=0;strokeColor=#667788;strokeWidth=2;align=center;verticalAlign=middle;fontFamily=Helvetica;fontSize=11;fontColor=default;labelBackgroundColor=default;endArrow=none;endFill=0;" parent="DKlUDa0g7rmCu-vv5rfz-14" source="eY5dnLTpbY4zrGF3gSu3-30" target="eY5dnLTpbY4zrGF3gSu3-32" edge="1">
          <mxGeometry relative="1" as="geometry" />
        </mxCell>
        <mxCell id="eY5dnLTpbY4zrGF3gSu3-30" value="Clear Vision" style="rounded=1;strokeWidth=1;strokeColor=#667788;textShadow=0;labelBackgroundColor=none;whiteSpace=wrap;fontSize=18;fontFamily=Georgia;fillColor=#AAC8EB;fontColor=#000000;shadow=1;glass=0;align=center;verticalAlign=middle;fontStyle=0;resizable=1;" parent="DKlUDa0g7rmCu-vv5rfz-14" vertex="1">
          <mxGeometry x="220" y="900" width="160" height="40" as="geometry" />
        </mxCell>
        <mxCell id="eY5dnLTpbY4zrGF3gSu3-90" style="edgeStyle=orthogonalEdgeStyle;shape=connector;curved=0;rounded=1;orthogonalLoop=1;jettySize=auto;html=1;exitX=1;exitY=0.5;exitDx=0;exitDy=0;entryX=0;entryY=0.5;entryDx=0;entryDy=0;strokeColor=#667788;strokeWidth=2;align=center;verticalAlign=middle;fontFamily=Helvetica;fontSize=11;fontColor=default;labelBackgroundColor=default;endArrow=classic;endFill=1;dashed=1;" parent="DKlUDa0g7rmCu-vv5rfz-14" source="eY5dnLTpbY4zrGF3gSu3-31" target="eY5dnLTpbY4zrGF3gSu3-33" edge="1">
          <mxGeometry relative="1" as="geometry" />
        </mxCell>
        <mxCell id="eY5dnLTpbY4zrGF3gSu3-92" style="edgeStyle=orthogonalEdgeStyle;shape=connector;curved=0;rounded=1;orthogonalLoop=1;jettySize=auto;html=1;exitX=1;exitY=0.5;exitDx=0;exitDy=0;entryX=0;entryY=0.5;entryDx=0;entryDy=0;strokeColor=#667788;strokeWidth=2;align=center;verticalAlign=middle;fontFamily=Helvetica;fontSize=11;fontColor=default;labelBackgroundColor=default;endArrow=classic;endFill=1;dashed=1;" parent="DKlUDa0g7rmCu-vv5rfz-14" source="eY5dnLTpbY4zrGF3gSu3-31" target="eY5dnLTpbY4zrGF3gSu3-35" edge="1">
          <mxGeometry relative="1" as="geometry" />
        </mxCell>
        <mxCell id="eY5dnLTpbY4zrGF3gSu3-31" value="Artificer&#39;s Eye" style="rounded=1;strokeWidth=1;strokeColor=#667788;textShadow=0;labelBackgroundColor=none;whiteSpace=wrap;fontSize=18;fontFamily=Georgia;fillColor=#AAC8EB;fontColor=#000000;shadow=1;glass=0;align=center;verticalAlign=middle;fontStyle=0;resizable=1;" parent="DKlUDa0g7rmCu-vv5rfz-14" vertex="1">
          <mxGeometry x="420" y="900" width="160" height="40" as="geometry" />
        </mxCell>
        <mxCell id="eY5dnLTpbY4zrGF3gSu3-87" style="edgeStyle=orthogonalEdgeStyle;shape=connector;curved=0;rounded=1;orthogonalLoop=1;jettySize=auto;html=1;exitX=1;exitY=0.5;exitDx=0;exitDy=0;entryX=0;entryY=0.5;entryDx=0;entryDy=0;strokeColor=#667788;strokeWidth=2;align=center;verticalAlign=middle;fontFamily=Helvetica;fontSize=11;fontColor=default;labelBackgroundColor=default;endArrow=none;endFill=0;" parent="DKlUDa0g7rmCu-vv5rfz-14" source="eY5dnLTpbY4zrGF3gSu3-32" target="eY5dnLTpbY4zrGF3gSu3-36" edge="1">
          <mxGeometry relative="1" as="geometry" />
        </mxCell>
        <mxCell id="eY5dnLTpbY4zrGF3gSu3-96" style="edgeStyle=orthogonalEdgeStyle;shape=connector;curved=0;rounded=1;orthogonalLoop=1;jettySize=auto;html=1;exitX=1;exitY=0.5;exitDx=0;exitDy=0;entryX=0;entryY=0.25;entryDx=0;entryDy=0;strokeColor=#667788;strokeWidth=2;align=center;verticalAlign=middle;fontFamily=Helvetica;fontSize=11;fontColor=default;labelBackgroundColor=default;endArrow=none;endFill=0;" parent="DKlUDa0g7rmCu-vv5rfz-14" source="eY5dnLTpbY4zrGF3gSu3-32" target="eY5dnLTpbY4zrGF3gSu3-40" edge="1">
          <mxGeometry relative="1" as="geometry">
            <Array as="points" />
          </mxGeometry>
        </mxCell>
        <mxCell id="eY5dnLTpbY4zrGF3gSu3-99" style="edgeStyle=orthogonalEdgeStyle;shape=connector;curved=0;rounded=1;orthogonalLoop=1;jettySize=auto;html=1;exitX=1;exitY=0.25;exitDx=0;exitDy=0;entryX=0;entryY=0.5;entryDx=0;entryDy=0;strokeColor=#667788;strokeWidth=2;align=center;verticalAlign=middle;fontFamily=Helvetica;fontSize=11;fontColor=default;labelBackgroundColor=default;endArrow=classic;endFill=1;dashed=1;" parent="DKlUDa0g7rmCu-vv5rfz-14" source="eY5dnLTpbY4zrGF3gSu3-32" target="eY5dnLTpbY4zrGF3gSu3-38" edge="1">
          <mxGeometry relative="1" as="geometry">
            <Array as="points">
              <mxPoint x="600" y="970" />
              <mxPoint x="600" y="960" />
              <mxPoint x="1000" y="960" />
              <mxPoint x="1000" y="920" />
            </Array>
          </mxGeometry>
        </mxCell>
        <mxCell id="eY5dnLTpbY4zrGF3gSu3-32" value="Aura Sight" style="rounded=1;strokeWidth=1;strokeColor=#667788;textShadow=0;labelBackgroundColor=none;whiteSpace=wrap;fontSize=18;fontFamily=Georgia;fillColor=#AAC8EB;fontColor=#000000;shadow=1;glass=0;align=center;verticalAlign=middle;fontStyle=0;resizable=1;" parent="DKlUDa0g7rmCu-vv5rfz-14" vertex="1">
          <mxGeometry x="420" y="960" width="160" height="40" as="geometry" />
        </mxCell>
        <mxCell id="eY5dnLTpbY4zrGF3gSu3-98" style="edgeStyle=orthogonalEdgeStyle;shape=connector;curved=0;rounded=1;orthogonalLoop=1;jettySize=auto;html=1;exitX=1;exitY=0.5;exitDx=0;exitDy=0;entryX=0;entryY=0.5;entryDx=0;entryDy=0;strokeColor=#667788;strokeWidth=2;align=center;verticalAlign=middle;fontFamily=Helvetica;fontSize=11;fontColor=default;labelBackgroundColor=default;endArrow=classic;endFill=1;dashed=1;" parent="DKlUDa0g7rmCu-vv5rfz-14" source="eY5dnLTpbY4zrGF3gSu3-33" target="eY5dnLTpbY4zrGF3gSu3-39" edge="1">
          <mxGeometry relative="1" as="geometry" />
        </mxCell>
        <mxCell id="eY5dnLTpbY4zrGF3gSu3-33" value="Tenebrous Sense" style="rounded=1;strokeWidth=1;strokeColor=#667788;textShadow=0;labelBackgroundColor=none;whiteSpace=wrap;fontSize=18;fontFamily=Georgia;fillColor=#AAC8EB;fontColor=#000000;shadow=1;glass=0;align=center;verticalAlign=middle;fontStyle=0;resizable=1;" parent="DKlUDa0g7rmCu-vv5rfz-14" vertex="1">
          <mxGeometry x="620" y="900" width="160" height="40" as="geometry" />
        </mxCell>
        <mxCell id="eY5dnLTpbY4zrGF3gSu3-89" style="edgeStyle=orthogonalEdgeStyle;shape=connector;curved=0;rounded=1;orthogonalLoop=1;jettySize=auto;html=1;exitX=1;exitY=0.5;exitDx=0;exitDy=0;entryX=0;entryY=0.5;entryDx=0;entryDy=0;strokeColor=#667788;strokeWidth=2;align=center;verticalAlign=middle;fontFamily=Helvetica;fontSize=11;fontColor=default;labelBackgroundColor=default;endArrow=classic;endFill=1;dashed=1;" parent="DKlUDa0g7rmCu-vv5rfz-14" source="eY5dnLTpbY4zrGF3gSu3-34" target="eY5dnLTpbY4zrGF3gSu3-35" edge="1">
          <mxGeometry relative="1" as="geometry" />
        </mxCell>
        <mxCell id="eY5dnLTpbY4zrGF3gSu3-94" style="edgeStyle=orthogonalEdgeStyle;shape=connector;curved=0;rounded=1;orthogonalLoop=1;jettySize=auto;html=1;exitX=1;exitY=0.5;exitDx=0;exitDy=0;strokeColor=#667788;strokeWidth=2;align=center;verticalAlign=middle;fontFamily=Helvetica;fontSize=11;fontColor=default;labelBackgroundColor=default;endArrow=none;endFill=0;dashed=1;" parent="DKlUDa0g7rmCu-vv5rfz-14" source="eY5dnLTpbY4zrGF3gSu3-34" edge="1">
          <mxGeometry relative="1" as="geometry">
            <mxPoint x="610" y="960" as="targetPoint" />
            <Array as="points">
              <mxPoint x="600" y="860" />
              <mxPoint x="600" y="960" />
            </Array>
          </mxGeometry>
        </mxCell>
        <mxCell id="eY5dnLTpbY4zrGF3gSu3-97" style="edgeStyle=orthogonalEdgeStyle;shape=connector;curved=0;rounded=1;orthogonalLoop=1;jettySize=auto;html=1;exitX=1;exitY=0.25;exitDx=0;exitDy=0;entryX=0;entryY=0.5;entryDx=0;entryDy=0;strokeColor=#667788;strokeWidth=2;align=center;verticalAlign=middle;fontFamily=Helvetica;fontSize=11;fontColor=default;labelBackgroundColor=default;endArrow=none;endFill=0;dashed=1;" parent="DKlUDa0g7rmCu-vv5rfz-14" source="eY5dnLTpbY4zrGF3gSu3-34" target="eY5dnLTpbY4zrGF3gSu3-39" edge="1">
          <mxGeometry relative="1" as="geometry">
            <Array as="points">
              <mxPoint x="590" y="850" />
              <mxPoint x="590" y="830" />
              <mxPoint x="800" y="830" />
              <mxPoint x="800" y="890" />
            </Array>
          </mxGeometry>
        </mxCell>
        <mxCell id="eY5dnLTpbY4zrGF3gSu3-34" value="Piercing Gaze" style="rounded=1;strokeWidth=1;strokeColor=#667788;textShadow=0;labelBackgroundColor=none;whiteSpace=wrap;fontSize=18;fontFamily=Georgia;fillColor=#B3D56A;fontColor=#000000;shadow=1;glass=0;align=center;verticalAlign=middle;fontStyle=0;resizable=1;" parent="DKlUDa0g7rmCu-vv5rfz-14" vertex="1">
          <mxGeometry x="420" y="840" width="160" height="40" as="geometry" />
        </mxCell>
        <mxCell id="eY5dnLTpbY4zrGF3gSu3-118" style="edgeStyle=orthogonalEdgeStyle;shape=connector;curved=0;rounded=1;orthogonalLoop=1;jettySize=auto;html=1;exitX=1;exitY=0.5;exitDx=0;exitDy=0;entryX=0;entryY=0.5;entryDx=0;entryDy=0;strokeColor=#667788;strokeWidth=2;align=center;verticalAlign=middle;fontFamily=Helvetica;fontSize=11;fontColor=default;labelBackgroundColor=default;endArrow=none;endFill=0;" parent="DKlUDa0g7rmCu-vv5rfz-14" source="eY5dnLTpbY4zrGF3gSu3-35" target="eY5dnLTpbY4zrGF3gSu3-4" edge="1">
          <mxGeometry relative="1" as="geometry">
            <Array as="points">
              <mxPoint x="810" y="860" />
              <mxPoint x="810" y="580" />
            </Array>
          </mxGeometry>
        </mxCell>
        <mxCell id="Pr3LXegyoYwMrFUZYJ9y-8" style="edgeStyle=orthogonalEdgeStyle;shape=connector;curved=0;rounded=1;orthogonalLoop=1;jettySize=auto;html=1;exitX=0.5;exitY=0;exitDx=0;exitDy=0;entryX=0;entryY=0.75;entryDx=0;entryDy=0;strokeColor=#667788;strokeWidth=2;align=center;verticalAlign=middle;fontFamily=Helvetica;fontSize=11;fontColor=default;labelBackgroundColor=default;endArrow=classic;endFill=1;dashed=1;" parent="DKlUDa0g7rmCu-vv5rfz-14" source="eY5dnLTpbY4zrGF3gSu3-35" target="eY5dnLTpbY4zrGF3gSu3-14" edge="1">
          <mxGeometry relative="1" as="geometry">
            <Array as="points">
              <mxPoint x="700" y="810" />
              <mxPoint x="790" y="810" />
              <mxPoint x="790" y="410" />
            </Array>
          </mxGeometry>
        </mxCell>
        <mxCell id="eY5dnLTpbY4zrGF3gSu3-35" value="Distant Gaze" style="rounded=1;strokeWidth=1;strokeColor=#667788;textShadow=0;labelBackgroundColor=none;whiteSpace=wrap;fontSize=18;fontFamily=Georgia;fillColor=#B3D56A;fontColor=#000000;shadow=1;glass=0;align=center;verticalAlign=middle;fontStyle=1;resizable=1;" parent="DKlUDa0g7rmCu-vv5rfz-14" vertex="1">
          <mxGeometry x="620" y="840" width="160" height="40" as="geometry" />
        </mxCell>
        <mxCell id="eY5dnLTpbY4zrGF3gSu3-36" value="Destiny Cipher" style="rounded=1;strokeWidth=1;strokeColor=#667788;textShadow=0;labelBackgroundColor=none;whiteSpace=wrap;fontSize=18;fontFamily=Georgia;fillColor=#B3D56A;fontColor=#000000;shadow=1;glass=0;align=center;verticalAlign=middle;fontStyle=1;resizable=1;" parent="DKlUDa0g7rmCu-vv5rfz-14" vertex="1">
          <mxGeometry x="620" y="990" width="160" height="40" as="geometry" />
        </mxCell>
        <mxCell id="eY5dnLTpbY4zrGF3gSu3-38" value="Unleash" style="rounded=1;strokeWidth=1;strokeColor=#667788;textShadow=0;labelBackgroundColor=none;whiteSpace=wrap;fontSize=18;fontFamily=Georgia;fillColor=#B3D56A;fontColor=#000000;shadow=1;glass=0;align=center;verticalAlign=middle;fontStyle=0;resizable=1;" parent="DKlUDa0g7rmCu-vv5rfz-14" vertex="1">
          <mxGeometry x="1020" y="900" width="160" height="40" as="geometry" />
        </mxCell>
        <mxCell id="eY5dnLTpbY4zrGF3gSu3-39" value="Machinist&#39;s Touch" style="rounded=1;strokeWidth=1;strokeColor=#667788;textShadow=0;labelBackgroundColor=none;whiteSpace=wrap;fontSize=18;fontFamily=Georgia;fillColor=#AAC8EB;fontColor=#000000;shadow=1;glass=0;align=center;verticalAlign=middle;fontStyle=0;resizable=1;" parent="DKlUDa0g7rmCu-vv5rfz-14" vertex="1">
          <mxGeometry x="820" y="870" width="160" height="40" as="geometry" />
        </mxCell>
        <mxCell id="eY5dnLTpbY4zrGF3gSu3-119" style="edgeStyle=orthogonalEdgeStyle;shape=connector;curved=0;rounded=1;orthogonalLoop=1;jettySize=auto;html=1;exitX=1;exitY=0.5;exitDx=0;exitDy=0;entryX=0;entryY=0.5;entryDx=0;entryDy=0;strokeColor=#667788;strokeWidth=2;align=center;verticalAlign=middle;fontFamily=Helvetica;fontSize=11;fontColor=default;labelBackgroundColor=default;endArrow=none;endFill=0;" parent="DKlUDa0g7rmCu-vv5rfz-14" source="eY5dnLTpbY4zrGF3gSu3-40" target="eY5dnLTpbY4zrGF3gSu3-1" edge="1">
          <mxGeometry relative="1" as="geometry">
            <Array as="points">
              <mxPoint x="1400" y="990" />
              <mxPoint x="1400" y="600" />
            </Array>
          </mxGeometry>
        </mxCell>
        <mxCell id="Pr3LXegyoYwMrFUZYJ9y-5" style="edgeStyle=orthogonalEdgeStyle;rounded=1;orthogonalLoop=1;jettySize=auto;html=1;exitX=1;exitY=0.5;exitDx=0;exitDy=0;entryX=0;entryY=0.5;entryDx=0;entryDy=0;strokeColor=#667788;strokeWidth=2;align=center;verticalAlign=middle;fontFamily=Helvetica;fontSize=11;fontColor=default;labelBackgroundColor=default;endArrow=none;endFill=0;curved=0;" parent="DKlUDa0g7rmCu-vv5rfz-14" source="eY5dnLTpbY4zrGF3gSu3-40" target="eY5dnLTpbY4zrGF3gSu3-28" edge="1">
          <mxGeometry relative="1" as="geometry">
            <Array as="points">
              <mxPoint x="1400" y="990" />
              <mxPoint x="1400" y="730" />
            </Array>
          </mxGeometry>
        </mxCell>
        <mxCell id="eY5dnLTpbY4zrGF3gSu3-40" value="Seer&#39;s Sense" style="rounded=1;strokeWidth=1;strokeColor=#667788;textShadow=0;labelBackgroundColor=none;whiteSpace=wrap;fontSize=18;fontFamily=Georgia;fillColor=#AAC8EB;fontColor=#000000;shadow=1;glass=0;align=center;verticalAlign=middle;fontStyle=1;resizable=1;gradientColor=#B3D56A;gradientDirection=east;" parent="DKlUDa0g7rmCu-vv5rfz-14" vertex="1">
          <mxGeometry x="820" y="970" width="160" height="40" as="geometry" />
        </mxCell>
        <mxCell id="eY5dnLTpbY4zrGF3gSu3-101" style="edgeStyle=orthogonalEdgeStyle;shape=connector;curved=0;rounded=1;orthogonalLoop=1;jettySize=auto;html=1;exitX=1;exitY=0.5;exitDx=0;exitDy=0;entryX=0;entryY=0.5;entryDx=0;entryDy=0;strokeColor=#667788;strokeWidth=2;align=center;verticalAlign=middle;fontFamily=Helvetica;fontSize=11;fontColor=default;labelBackgroundColor=default;endArrow=none;endFill=0;" parent="DKlUDa0g7rmCu-vv5rfz-14" source="eY5dnLTpbY4zrGF3gSu3-41" target="eY5dnLTpbY4zrGF3gSu3-43" edge="1">
          <mxGeometry relative="1" as="geometry" />
        </mxCell>
        <mxCell id="eY5dnLTpbY4zrGF3gSu3-102" style="edgeStyle=orthogonalEdgeStyle;shape=connector;curved=0;rounded=1;orthogonalLoop=1;jettySize=auto;html=1;exitX=1;exitY=0.5;exitDx=0;exitDy=0;entryX=0;entryY=0.5;entryDx=0;entryDy=0;strokeColor=#667788;strokeWidth=2;align=center;verticalAlign=middle;fontFamily=Helvetica;fontSize=11;fontColor=default;labelBackgroundColor=default;endArrow=none;endFill=0;" parent="DKlUDa0g7rmCu-vv5rfz-14" source="eY5dnLTpbY4zrGF3gSu3-41" target="eY5dnLTpbY4zrGF3gSu3-44" edge="1">
          <mxGeometry relative="1" as="geometry" />
        </mxCell>
        <mxCell id="eY5dnLTpbY4zrGF3gSu3-109" style="edgeStyle=orthogonalEdgeStyle;shape=connector;curved=0;rounded=1;orthogonalLoop=1;jettySize=auto;html=1;exitX=1;exitY=0.5;exitDx=0;exitDy=0;entryX=0;entryY=0.5;entryDx=0;entryDy=0;strokeColor=#667788;strokeWidth=2;align=center;verticalAlign=middle;fontFamily=Helvetica;fontSize=11;fontColor=default;labelBackgroundColor=default;endArrow=none;endFill=0;" parent="DKlUDa0g7rmCu-vv5rfz-14" source="eY5dnLTpbY4zrGF3gSu3-41" target="eY5dnLTpbY4zrGF3gSu3-107" edge="1">
          <mxGeometry relative="1" as="geometry">
            <Array as="points">
              <mxPoint x="400" y="1210" />
              <mxPoint x="400" y="1270" />
            </Array>
          </mxGeometry>
        </mxCell>
        <mxCell id="eY5dnLTpbY4zrGF3gSu3-41" value="Calm" style="rounded=1;strokeWidth=1;strokeColor=#667788;textShadow=0;labelBackgroundColor=none;whiteSpace=wrap;fontSize=18;fontFamily=Georgia;fillColor=#EBCD00;fontColor=#000000;shadow=1;glass=0;align=center;verticalAlign=middle;fontStyle=0;resizable=1;" parent="DKlUDa0g7rmCu-vv5rfz-14" vertex="1">
          <mxGeometry x="220" y="1190" width="160" height="40" as="geometry" />
        </mxCell>
        <mxCell id="eY5dnLTpbY4zrGF3gSu3-100" style="edgeStyle=orthogonalEdgeStyle;shape=connector;curved=0;rounded=1;orthogonalLoop=1;jettySize=auto;html=1;exitX=1;exitY=0.5;exitDx=0;exitDy=0;entryX=0;entryY=0.5;entryDx=0;entryDy=0;strokeColor=#667788;strokeWidth=2;align=center;verticalAlign=middle;fontFamily=Helvetica;fontSize=11;fontColor=default;labelBackgroundColor=default;endArrow=none;endFill=0;" parent="DKlUDa0g7rmCu-vv5rfz-14" source="eY5dnLTpbY4zrGF3gSu3-42" target="eY5dnLTpbY4zrGF3gSu3-45" edge="1">
          <mxGeometry relative="1" as="geometry" />
        </mxCell>
        <mxCell id="eY5dnLTpbY4zrGF3gSu3-105" style="edgeStyle=orthogonalEdgeStyle;shape=connector;curved=0;rounded=1;orthogonalLoop=1;jettySize=auto;html=1;exitX=1;exitY=0.5;exitDx=0;exitDy=0;entryX=0;entryY=0.5;entryDx=0;entryDy=0;strokeColor=#667788;strokeWidth=2;align=center;verticalAlign=middle;fontFamily=Helvetica;fontSize=11;fontColor=default;labelBackgroundColor=default;endArrow=none;endFill=0;" parent="DKlUDa0g7rmCu-vv5rfz-14" source="eY5dnLTpbY4zrGF3gSu3-42" target="eY5dnLTpbY4zrGF3gSu3-46" edge="1">
          <mxGeometry relative="1" as="geometry">
            <Array as="points">
              <mxPoint x="400" y="1150" />
              <mxPoint x="400" y="1110" />
            </Array>
          </mxGeometry>
        </mxCell>
        <mxCell id="eY5dnLTpbY4zrGF3gSu3-42" value="Telekinetic Throw" style="rounded=1;strokeWidth=1;strokeColor=#667788;textShadow=0;labelBackgroundColor=none;whiteSpace=wrap;fontSize=18;fontFamily=Georgia;fillColor=#E80538;fontColor=#FFFFFF;shadow=1;glass=0;align=center;verticalAlign=middle;fontStyle=0;resizable=1;gradientColor=none;gradientDirection=east;" parent="DKlUDa0g7rmCu-vv5rfz-14" vertex="1">
          <mxGeometry x="220" y="1130" width="160" height="40" as="geometry" />
        </mxCell>
        <mxCell id="eY5dnLTpbY4zrGF3gSu3-103" style="edgeStyle=orthogonalEdgeStyle;shape=connector;curved=0;rounded=1;orthogonalLoop=1;jettySize=auto;html=1;exitX=1;exitY=0.5;exitDx=0;exitDy=0;entryX=0;entryY=0.5;entryDx=0;entryDy=0;strokeColor=#667788;strokeWidth=2;align=center;verticalAlign=middle;fontFamily=Helvetica;fontSize=11;fontColor=default;labelBackgroundColor=default;endArrow=none;endFill=0;dashed=1;" parent="DKlUDa0g7rmCu-vv5rfz-14" source="eY5dnLTpbY4zrGF3gSu3-43" target="eY5dnLTpbY4zrGF3gSu3-47" edge="1">
          <mxGeometry relative="1" as="geometry" />
        </mxCell>
        <mxCell id="eY5dnLTpbY4zrGF3gSu3-111" style="edgeStyle=orthogonalEdgeStyle;shape=connector;curved=0;rounded=1;orthogonalLoop=1;jettySize=auto;html=1;exitX=1;exitY=0.25;exitDx=0;exitDy=0;entryX=0;entryY=0.5;entryDx=0;entryDy=0;strokeColor=#667788;strokeWidth=2;align=center;verticalAlign=middle;fontFamily=Helvetica;fontSize=11;fontColor=default;labelBackgroundColor=default;endArrow=none;endFill=0;" parent="DKlUDa0g7rmCu-vv5rfz-14" source="eY5dnLTpbY4zrGF3gSu3-43" target="eY5dnLTpbY4zrGF3gSu3-50" edge="1">
          <mxGeometry relative="1" as="geometry">
            <Array as="points">
              <mxPoint x="910" y="1200" />
              <mxPoint x="910" y="1150" />
            </Array>
          </mxGeometry>
        </mxCell>
        <mxCell id="eY5dnLTpbY4zrGF3gSu3-43" value="Psychic Shield" style="rounded=1;whiteSpace=wrap;fillColor=#147A6D;labelBackgroundColor=none;movable=1;resizable=1;rotatable=1;deletable=1;editable=1;locked=0;connectable=1;container=0;fontFamily=Georgia;fontSize=18;strokeColor=#667788;shadow=1;glass=0;strokeWidth=1;align=center;fontStyle=0;verticalAlign=middle;fontColor=#FFFFFF;textShadow=0;" parent="DKlUDa0g7rmCu-vv5rfz-14" vertex="1">
          <mxGeometry x="620" y="1190" width="160" height="40" as="geometry" />
        </mxCell>
        <mxCell id="eY5dnLTpbY4zrGF3gSu3-104" style="edgeStyle=orthogonalEdgeStyle;shape=connector;curved=0;rounded=1;orthogonalLoop=1;jettySize=auto;html=1;exitX=1;exitY=0.5;exitDx=0;exitDy=0;entryX=0;entryY=0.5;entryDx=0;entryDy=0;strokeColor=#667788;strokeWidth=2;align=center;verticalAlign=middle;fontFamily=Helvetica;fontSize=11;fontColor=default;labelBackgroundColor=default;endArrow=classic;endFill=1;dashed=1;" parent="DKlUDa0g7rmCu-vv5rfz-14" source="eY5dnLTpbY4zrGF3gSu3-44" target="eY5dnLTpbY4zrGF3gSu3-47" edge="1">
          <mxGeometry relative="1" as="geometry">
            <Array as="points">
              <mxPoint x="910" y="1250" />
              <mxPoint x="910" y="1210" />
            </Array>
          </mxGeometry>
        </mxCell>
        <mxCell id="eY5dnLTpbY4zrGF3gSu3-44" value="Sleep" style="rounded=1;strokeWidth=1;strokeColor=#667788;textShadow=0;labelBackgroundColor=none;whiteSpace=wrap;fontSize=18;fontFamily=Georgia;fillColor=#EBCD00;fontColor=#000000;shadow=1;glass=0;align=center;verticalAlign=middle;fontStyle=0;resizable=1;" parent="DKlUDa0g7rmCu-vv5rfz-14" vertex="1">
          <mxGeometry x="410" y="1220" width="160" height="40" as="geometry" />
        </mxCell>
        <mxCell id="Pr3LXegyoYwMrFUZYJ9y-11" style="edgeStyle=orthogonalEdgeStyle;shape=connector;curved=0;rounded=1;orthogonalLoop=1;jettySize=auto;html=1;exitX=1;exitY=0.5;exitDx=0;exitDy=0;entryX=0;entryY=0.75;entryDx=0;entryDy=0;strokeColor=#667788;strokeWidth=2;align=center;verticalAlign=middle;fontFamily=Helvetica;fontSize=11;fontColor=default;labelBackgroundColor=default;endArrow=none;endFill=0;" parent="DKlUDa0g7rmCu-vv5rfz-14" source="eY5dnLTpbY4zrGF3gSu3-45" target="eY5dnLTpbY4zrGF3gSu3-38" edge="1">
          <mxGeometry relative="1" as="geometry">
            <Array as="points">
              <mxPoint x="1010" y="1150" />
              <mxPoint x="1010" y="930" />
            </Array>
          </mxGeometry>
        </mxCell>
        <mxCell id="eY5dnLTpbY4zrGF3gSu3-45" value="Rend" style="rounded=1;strokeWidth=1;strokeColor=#667788;textShadow=0;labelBackgroundColor=none;whiteSpace=wrap;fontSize=18;fontFamily=Georgia;fillColor=#EBCD00;fontColor=#000000;shadow=1;glass=0;align=center;verticalAlign=middle;fontStyle=0;resizable=1;gradientColor=#B3D56A;gradientDirection=east;" parent="DKlUDa0g7rmCu-vv5rfz-14" vertex="1">
          <mxGeometry x="620" y="1130" width="160" height="40" as="geometry" />
        </mxCell>
        <mxCell id="eY5dnLTpbY4zrGF3gSu3-116" style="edgeStyle=orthogonalEdgeStyle;shape=connector;curved=0;rounded=1;orthogonalLoop=1;jettySize=auto;html=1;exitX=1;exitY=0.5;exitDx=0;exitDy=0;entryX=0;entryY=0.5;entryDx=0;entryDy=0;strokeColor=#667788;strokeWidth=2;align=center;verticalAlign=middle;fontFamily=Helvetica;fontSize=11;fontColor=default;labelBackgroundColor=default;endArrow=none;endFill=0;" parent="DKlUDa0g7rmCu-vv5rfz-14" source="eY5dnLTpbY4zrGF3gSu3-46" target="eY5dnLTpbY4zrGF3gSu3-49" edge="1">
          <mxGeometry relative="1" as="geometry" />
        </mxCell>
        <mxCell id="eY5dnLTpbY4zrGF3gSu3-46" value="Telekinetic Storm" style="rounded=1;strokeWidth=1;strokeColor=#667788;textShadow=0;labelBackgroundColor=none;whiteSpace=wrap;fontSize=18;fontFamily=Georgia;fillColor=#E80538;fontColor=#FFFFFF;shadow=1;glass=0;align=center;verticalAlign=middle;fontStyle=0;resizable=1;gradientColor=none;gradientDirection=east;" parent="DKlUDa0g7rmCu-vv5rfz-14" vertex="1">
          <mxGeometry x="820" y="1090" width="160" height="40" as="geometry" />
        </mxCell>
        <mxCell id="eY5dnLTpbY4zrGF3gSu3-113" style="edgeStyle=orthogonalEdgeStyle;shape=connector;curved=0;rounded=1;orthogonalLoop=1;jettySize=auto;html=1;exitX=1;exitY=0.5;exitDx=0;exitDy=0;entryX=0;entryY=0.5;entryDx=0;entryDy=0;strokeColor=#667788;strokeWidth=2;align=center;verticalAlign=middle;fontFamily=Helvetica;fontSize=11;fontColor=default;labelBackgroundColor=default;endArrow=none;endFill=0;dashed=1;" parent="DKlUDa0g7rmCu-vv5rfz-14" source="eY5dnLTpbY4zrGF3gSu3-47" target="A4h3zCrJcsYcp54G7Gio-3" edge="1">
          <mxGeometry relative="1" as="geometry" />
        </mxCell>
        <mxCell id="eY5dnLTpbY4zrGF3gSu3-47" value="Thoughtcast" style="rounded=1;strokeWidth=1;strokeColor=#667788;textShadow=0;labelBackgroundColor=none;whiteSpace=wrap;fontSize=18;fontFamily=Georgia;fillColor=#B3D56A;fontColor=#000000;shadow=1;glass=0;align=center;verticalAlign=middle;fontStyle=0;resizable=1;" parent="DKlUDa0g7rmCu-vv5rfz-14" vertex="1">
          <mxGeometry x="1020" y="1190" width="160" height="40" as="geometry" />
        </mxCell>
        <mxCell id="eY5dnLTpbY4zrGF3gSu3-48" value="Mind Shout" style="rounded=1;strokeWidth=1;strokeColor=#667788;textShadow=0;labelBackgroundColor=none;whiteSpace=wrap;fontSize=18;fontFamily=Georgia;fillColor=#EBCD00;fontColor=#000000;shadow=1;glass=0;align=center;verticalAlign=middle;fontStyle=1;resizable=1;" parent="DKlUDa0g7rmCu-vv5rfz-14" vertex="1">
          <mxGeometry x="1420" y="1160" width="160" height="40" as="geometry" />
        </mxCell>
        <mxCell id="eY5dnLTpbY4zrGF3gSu3-49" value="Telekinetic Shield" style="rounded=1;whiteSpace=wrap;fillColor=#147A6D;labelBackgroundColor=none;movable=1;resizable=1;rotatable=1;deletable=1;editable=1;locked=0;connectable=1;container=0;fontFamily=Georgia;fontSize=18;strokeColor=#667788;shadow=1;glass=0;strokeWidth=1;align=center;fontStyle=0;verticalAlign=middle;fontColor=#FFFFFF;textShadow=0;" parent="DKlUDa0g7rmCu-vv5rfz-14" vertex="1">
          <mxGeometry x="1220" y="1090" width="160" height="40" as="geometry" />
        </mxCell>
        <mxCell id="eY5dnLTpbY4zrGF3gSu3-112" style="edgeStyle=orthogonalEdgeStyle;shape=connector;curved=0;rounded=1;orthogonalLoop=1;jettySize=auto;html=1;exitX=1;exitY=0.5;exitDx=0;exitDy=0;entryX=0;entryY=0.5;entryDx=0;entryDy=0;strokeColor=#667788;strokeWidth=2;align=center;verticalAlign=middle;fontFamily=Helvetica;fontSize=11;fontColor=default;labelBackgroundColor=default;endArrow=classic;endFill=1;dashed=1;" parent="DKlUDa0g7rmCu-vv5rfz-14" source="eY5dnLTpbY4zrGF3gSu3-50" target="A4h3zCrJcsYcp54G7Gio-3" edge="1">
          <mxGeometry relative="1" as="geometry" />
        </mxCell>
        <mxCell id="eY5dnLTpbY4zrGF3gSu3-50" value="Shear" style="rounded=1;whiteSpace=wrap;fillColor=#147A6D;labelBackgroundColor=none;movable=1;resizable=1;rotatable=1;deletable=1;editable=1;locked=0;connectable=1;container=0;fontFamily=Georgia;fontSize=18;strokeColor=#667788;shadow=1;glass=0;strokeWidth=1;align=center;fontStyle=0;verticalAlign=middle;fontColor=#FFFFFF;textShadow=0;" parent="DKlUDa0g7rmCu-vv5rfz-14" vertex="1">
          <mxGeometry x="1020" y="1130" width="160" height="40" as="geometry" />
        </mxCell>
        <mxCell id="eY5dnLTpbY4zrGF3gSu3-53" style="edgeStyle=orthogonalEdgeStyle;rounded=1;orthogonalLoop=1;jettySize=auto;html=1;exitX=1;exitY=0.5;exitDx=0;exitDy=0;entryX=0;entryY=0.5;entryDx=0;entryDy=0;dashed=1;strokeColor=#667788;strokeWidth=2;align=center;verticalAlign=middle;fontFamily=Helvetica;fontSize=11;fontColor=default;labelBackgroundColor=default;endArrow=classic;curved=0;" parent="DKlUDa0g7rmCu-vv5rfz-14" source="eY5dnLTpbY4zrGF3gSu3-52" target="A4h3zCrJcsYcp54G7Gio-4" edge="1">
          <mxGeometry relative="1" as="geometry">
            <Array as="points">
              <mxPoint x="1200" y="100" />
              <mxPoint x="1200" y="130" />
            </Array>
          </mxGeometry>
        </mxCell>
        <mxCell id="eY5dnLTpbY4zrGF3gSu3-52" value="Sovereign Destiny" style="rounded=1;strokeWidth=1;strokeColor=#667788;textShadow=0;labelBackgroundColor=none;whiteSpace=wrap;fontSize=18;fontFamily=Georgia;fillColor=#EBCD00;fontColor=#000000;shadow=1;glass=0;align=center;verticalAlign=middle;fontStyle=1;resizable=1;" parent="DKlUDa0g7rmCu-vv5rfz-14" vertex="1">
          <mxGeometry x="820" y="80" width="160" height="40" as="geometry" />
        </mxCell>
        <mxCell id="eY5dnLTpbY4zrGF3gSu3-12" value="Cage of Light" style="rounded=1;whiteSpace=wrap;fillColor=#147A6D;labelBackgroundColor=none;movable=1;resizable=1;rotatable=1;deletable=1;editable=1;locked=0;connectable=1;container=0;fontFamily=Georgia;fontSize=18;strokeColor=#667788;shadow=1;glass=0;strokeWidth=1;align=center;fontStyle=0;verticalAlign=middle;fontColor=#FFFFFF;textShadow=0;" parent="DKlUDa0g7rmCu-vv5rfz-14" vertex="1">
          <mxGeometry x="1020" y="380" width="160" height="40" as="geometry" />
        </mxCell>
        <mxCell id="eY5dnLTpbY4zrGF3gSu3-72" style="edgeStyle=orthogonalEdgeStyle;shape=connector;curved=0;rounded=1;orthogonalLoop=1;jettySize=auto;html=1;exitX=1;exitY=0.5;exitDx=0;exitDy=0;entryX=0;entryY=0.5;entryDx=0;entryDy=0;strokeColor=#667788;strokeWidth=2;align=center;verticalAlign=middle;fontFamily=Helvetica;fontSize=11;fontColor=default;labelBackgroundColor=default;endArrow=classic;endFill=1;dashed=1;" parent="DKlUDa0g7rmCu-vv5rfz-14" source="eY5dnLTpbY4zrGF3gSu3-10" target="eY5dnLTpbY4zrGF3gSu3-11" edge="1">
          <mxGeometry relative="1" as="geometry">
            <mxPoint x="580" y="260" as="sourcePoint" />
            <mxPoint x="620" y="320" as="targetPoint" />
            <Array as="points">
              <mxPoint x="600" y="330" />
              <mxPoint x="600" y="290" />
            </Array>
          </mxGeometry>
        </mxCell>
        <mxCell id="eY5dnLTpbY4zrGF3gSu3-73" style="edgeStyle=orthogonalEdgeStyle;shape=connector;curved=0;rounded=1;orthogonalLoop=1;jettySize=auto;html=1;exitX=1;exitY=0.5;exitDx=0;exitDy=0;entryX=0;entryY=0.5;entryDx=0;entryDy=0;strokeColor=#667788;strokeWidth=2;align=center;verticalAlign=middle;fontFamily=Helvetica;fontSize=11;fontColor=default;labelBackgroundColor=default;endArrow=classic;endFill=1;dashed=1;" parent="DKlUDa0g7rmCu-vv5rfz-14" source="eY5dnLTpbY4zrGF3gSu3-19" target="eY5dnLTpbY4zrGF3gSu3-20" edge="1">
          <mxGeometry relative="1" as="geometry">
            <mxPoint x="590" y="340" as="sourcePoint" />
            <mxPoint x="630" y="400" as="targetPoint" />
            <Array as="points">
              <mxPoint x="610" y="700" />
              <mxPoint x="610" y="700" />
            </Array>
          </mxGeometry>
        </mxCell>
        <mxCell id="eY5dnLTpbY4zrGF3gSu3-95" value="" style="edgeStyle=orthogonalEdgeStyle;shape=connector;curved=0;rounded=1;orthogonalLoop=1;jettySize=auto;html=1;exitX=1;exitY=0.25;exitDx=0;exitDy=0;entryX=0;entryY=0.5;entryDx=0;entryDy=0;strokeColor=#667788;strokeWidth=2;align=center;verticalAlign=middle;fontFamily=Helvetica;fontSize=11;fontColor=default;labelBackgroundColor=default;endArrow=classic;endFill=1;dashed=1;" parent="DKlUDa0g7rmCu-vv5rfz-14" source="eY5dnLTpbY4zrGF3gSu3-32" target="eY5dnLTpbY4zrGF3gSu3-37" edge="1">
          <mxGeometry relative="1" as="geometry">
            <mxPoint x="580" y="970" as="sourcePoint" />
            <mxPoint x="1020" y="970" as="targetPoint" />
            <Array as="points">
              <mxPoint x="600" y="970" />
              <mxPoint x="600" y="960" />
              <mxPoint x="1000" y="960" />
              <mxPoint x="1000" y="860" />
            </Array>
          </mxGeometry>
        </mxCell>
        <mxCell id="Pr3LXegyoYwMrFUZYJ9y-9" style="edgeStyle=orthogonalEdgeStyle;shape=connector;curved=0;rounded=1;orthogonalLoop=1;jettySize=auto;html=1;exitX=0.5;exitY=0;exitDx=0;exitDy=0;entryX=0;entryY=0.75;entryDx=0;entryDy=0;strokeColor=#667788;strokeWidth=2;align=center;verticalAlign=middle;fontFamily=Helvetica;fontSize=11;fontColor=default;labelBackgroundColor=default;endArrow=classic;endFill=1;dashed=1;" parent="DKlUDa0g7rmCu-vv5rfz-14" source="eY5dnLTpbY4zrGF3gSu3-37" target="eY5dnLTpbY4zrGF3gSu3-14" edge="1">
          <mxGeometry relative="1" as="geometry">
            <Array as="points">
              <mxPoint x="1100" y="810" />
              <mxPoint x="790" y="810" />
              <mxPoint x="790" y="410" />
            </Array>
          </mxGeometry>
        </mxCell>
        <mxCell id="eY5dnLTpbY4zrGF3gSu3-37" value="Locate" style="rounded=1;strokeWidth=1;strokeColor=#667788;textShadow=0;labelBackgroundColor=none;whiteSpace=wrap;fontSize=18;fontFamily=Georgia;fillColor=#B3D56A;fontColor=#000000;shadow=1;glass=0;align=center;verticalAlign=middle;fontStyle=1;resizable=1;" parent="DKlUDa0g7rmCu-vv5rfz-14" vertex="1">
          <mxGeometry x="1020" y="840" width="160" height="40" as="geometry" />
        </mxCell>
        <mxCell id="eY5dnLTpbY4zrGF3gSu3-106" value="Empower Moonblade" style="rounded=1;whiteSpace=wrap;fillColor=#D5D0CA;labelBackgroundColor=none;movable=1;resizable=1;rotatable=1;deletable=1;editable=1;locked=0;connectable=1;container=0;fontFamily=Georgia;fontSize=18;strokeColor=#667788;shadow=0;glass=0;strokeWidth=1;align=center;fontStyle=1;verticalAlign=middle;fontColor=#000000;textShadow=0;" parent="DKlUDa0g7rmCu-vv5rfz-14" vertex="1">
          <mxGeometry x="1420" y="1090" width="160" height="40" as="geometry" />
        </mxCell>
        <mxCell id="eY5dnLTpbY4zrGF3gSu3-114" style="edgeStyle=orthogonalEdgeStyle;shape=connector;curved=0;rounded=1;orthogonalLoop=1;jettySize=auto;html=1;exitX=1;exitY=0.5;exitDx=0;exitDy=0;entryX=0;entryY=0.75;entryDx=0;entryDy=0;strokeColor=#667788;strokeWidth=2;align=center;verticalAlign=middle;fontFamily=Helvetica;fontSize=11;fontColor=default;labelBackgroundColor=default;endArrow=none;endFill=0;" parent="DKlUDa0g7rmCu-vv5rfz-14" source="eY5dnLTpbY4zrGF3gSu3-107" target="A4h3zCrJcsYcp54G7Gio-3" edge="1">
          <mxGeometry relative="1" as="geometry">
            <Array as="points">
              <mxPoint x="1210" y="1270" />
              <mxPoint x="1210" y="1190" />
            </Array>
          </mxGeometry>
        </mxCell>
        <mxCell id="eY5dnLTpbY4zrGF3gSu3-107" value="Hypnotize" style="rounded=1;whiteSpace=wrap;fillColor=#D5D0CA;labelBackgroundColor=none;movable=1;resizable=1;rotatable=1;deletable=1;editable=1;locked=0;connectable=1;container=0;fontFamily=Georgia;fontSize=18;strokeColor=#667788;shadow=0;glass=0;strokeWidth=1;align=center;fontStyle=0;verticalAlign=middle;fontColor=#000000;textShadow=0;" parent="DKlUDa0g7rmCu-vv5rfz-14" vertex="1">
          <mxGeometry x="1020" y="1250" width="160" height="40" as="geometry" />
        </mxCell>
        <mxCell id="A4h3zCrJcsYcp54G7Gio-1" value="Sever Thread" style="rounded=1;strokeWidth=1;strokeColor=#667788;textShadow=0;labelBackgroundColor=none;whiteSpace=wrap;fontSize=18;fontFamily=Georgia;fillColor=#EBCD00;fontColor=#000000;shadow=1;glass=0;align=center;verticalAlign=middle;fontStyle=1;resizable=1;" parent="DKlUDa0g7rmCu-vv5rfz-14" vertex="1">
          <mxGeometry x="420" y="80" width="160" height="40" as="geometry" />
        </mxCell>
        <mxCell id="eY5dnLTpbY4zrGF3gSu3-123" style="edgeStyle=orthogonalEdgeStyle;shape=connector;curved=0;rounded=1;orthogonalLoop=1;jettySize=auto;html=1;exitX=1;exitY=0.5;exitDx=0;exitDy=0;entryX=0;entryY=0.75;entryDx=0;entryDy=0;strokeColor=#667788;strokeWidth=2;align=center;verticalAlign=middle;fontFamily=Helvetica;fontSize=11;fontColor=default;labelBackgroundColor=default;endArrow=none;endFill=0;" parent="DKlUDa0g7rmCu-vv5rfz-14" source="eY5dnLTpbY4zrGF3gSu3-3" target="A4h3zCrJcsYcp54G7Gio-4" edge="1">
          <mxGeometry relative="1" as="geometry">
            <Array as="points">
              <mxPoint x="1390" y="500" />
              <mxPoint x="1390" y="140" />
            </Array>
          </mxGeometry>
        </mxCell>
        <mxCell id="1" style="locked=1;" parent="0" />
        <mxCell id="DKlUDa0g7rmCu-vv5rfz-415" value="Basic" style="text;align=center;verticalAlign=middle;resizable=0;points=[];autosize=0;strokeColor=none;fillColor=none;fontFamily=Helvetica;fontSize=18;fontColor=#667788;labelBackgroundColor=none;textShadow=1;" parent="1" vertex="1">
          <mxGeometry x="560" width="80" height="40" as="geometry" />
        </mxCell>
        <mxCell id="DKlUDa0g7rmCu-vv5rfz-416" value="Intermediate" style="text;align=center;verticalAlign=middle;resizable=0;points=[];autosize=0;strokeColor=none;fillColor=none;fontFamily=Helvetica;fontSize=18;fontColor=#667788;labelBackgroundColor=none;textShadow=1;" parent="1" vertex="1">
          <mxGeometry x="940" width="120" height="40" as="geometry" />
        </mxCell>
        <mxCell id="DKlUDa0g7rmCu-vv5rfz-417" value="Intro" style="text;html=1;align=center;verticalAlign=middle;resizable=0;points=[];autosize=0;strokeColor=none;fillColor=none;fontFamily=Helvetica;fontSize=18;fontColor=#667788;labelBackgroundColor=none;textShadow=1;" parent="1" vertex="1">
          <mxGeometry x="160" width="80" height="40" as="geometry" />
        </mxCell>
        <mxCell id="DKlUDa0g7rmCu-vv5rfz-418" value="Advanced" style="text;align=center;verticalAlign=middle;resizable=0;points=[];autosize=0;strokeColor=none;fillColor=none;fontFamily=Helvetica;fontSize=18;fontColor=#667788;labelBackgroundColor=none;textShadow=1;" parent="1" vertex="1">
          <mxGeometry x="1340" width="120" height="40" as="geometry" />
        </mxCell>
        <mxCell id="-dR2T00Uhgw3VuPTZwKf-47" value="Legend" style="rounded=1;fillColor=none;verticalAlign=top;labelBackgroundColor=none;movable=1;resizable=1;rotatable=1;deletable=1;editable=1;locked=0;connectable=1;container=0;fontStyle=1;fontColor=#667788;fontFamily=Georgia;strokeColor=#667788;shadow=1;glass=0;strokeWidth=1;textShadow=0;whiteSpace=wrap;" parent="1" vertex="1">
          <mxGeometry x="1610" y="840" width="180" height="470" as="geometry" />
        </mxCell>
        <mxCell id="-dR2T00Uhgw3VuPTZwKf-555" value="Metamagic" style="rounded=1;whiteSpace=wrap;fillColor=#D5D0CA;labelBackgroundColor=none;movable=1;resizable=1;rotatable=1;deletable=1;editable=1;locked=0;connectable=1;container=0;fontFamily=Georgia;fontSize=18;strokeColor=#667788;shadow=0;glass=0;strokeWidth=1;align=center;fontStyle=1;verticalAlign=middle;fontColor=#000000;textShadow=0;" parent="1" vertex="1">
          <mxGeometry x="1620" y="1170" width="160" height="40" as="geometry" />
        </mxCell>
        <mxCell id="DKlUDa0g7rmCu-vv5rfz-169" value="Debilitation" style="rounded=1;whiteSpace=wrap;fillColor=#EBCD00;labelBackgroundColor=none;movable=1;resizable=1;rotatable=1;deletable=1;editable=1;locked=0;connectable=1;container=0;fontFamily=Georgia;fontSize=18;strokeColor=#667788;shadow=1;glass=0;strokeWidth=1;align=center;fontStyle=1;verticalAlign=middle;fontColor=#000000;textShadow=0;" parent="1" vertex="1">
          <mxGeometry x="1620" y="1120" width="160" height="40" as="geometry" />
        </mxCell>
        <mxCell id="DKlUDa0g7rmCu-vv5rfz-170" value="Targeted Magic" style="rounded=1;whiteSpace=wrap;fillColor=#E80538;labelBackgroundColor=none;movable=1;resizable=1;rotatable=1;deletable=1;editable=1;locked=0;connectable=1;container=0;fontFamily=Georgia;fontSize=18;strokeColor=#667788;shadow=1;glass=0;strokeWidth=1;align=center;fontStyle=1;verticalAlign=middle;fontColor=#FFFFFF;textShadow=0;" parent="1" vertex="1">
          <mxGeometry x="1620" y="1070" width="160" height="40" as="geometry" />
        </mxCell>
        <mxCell id="DKlUDa0g7rmCu-vv5rfz-171" value="Utility" style="rounded=1;whiteSpace=wrap;fillColor=#B3D56A;labelBackgroundColor=none;movable=1;resizable=1;rotatable=1;deletable=1;editable=1;locked=0;connectable=1;container=0;fontFamily=Georgia;fontSize=18;strokeColor=#667788;shadow=1;glass=0;strokeWidth=1;align=center;fontStyle=1;verticalAlign=middle;fontColor=#000000;textShadow=0;" parent="1" vertex="1">
          <mxGeometry x="1620" y="1020" width="160" height="40" as="geometry" />
        </mxCell>
        <mxCell id="DKlUDa0g7rmCu-vv5rfz-172" value="Warding" style="rounded=1;whiteSpace=wrap;fillColor=#147A6D;labelBackgroundColor=none;movable=1;resizable=1;rotatable=1;deletable=1;editable=1;locked=0;connectable=1;container=0;fontFamily=Georgia;fontSize=18;strokeColor=#667788;shadow=1;glass=0;strokeWidth=1;align=center;fontStyle=1;verticalAlign=middle;fontColor=#FFFFFF;textShadow=0;" parent="1" vertex="1">
          <mxGeometry x="1620" y="970" width="160" height="40" as="geometry" />
        </mxCell>
        <mxCell id="DKlUDa0g7rmCu-vv5rfz-174" value="Augmentation" style="rounded=1;whiteSpace=wrap;fillColor=#AAC8EB;labelBackgroundColor=none;movable=1;resizable=1;rotatable=1;deletable=1;editable=1;locked=0;connectable=1;container=0;fontFamily=Georgia;fontSize=18;strokeColor=#667788;shadow=1;glass=0;strokeWidth=1;fontColor=#000000;align=center;fontStyle=1;verticalAlign=middle;textShadow=0;" parent="1" vertex="1">
          <mxGeometry x="1620" y="920" width="160" height="40" as="geometry" />
        </mxCell>
        <mxCell id="DKlUDa0g7rmCu-vv5rfz-178" value="Special requirements in italics" style="text;align=center;verticalAlign=middle;whiteSpace=wrap;rounded=1;fontFamily=Georgia;fontSize=15;fontColor=#667788;labelBackgroundColor=none;fontStyle=3;strokeColor=none;shadow=1;glass=0;strokeWidth=1;movable=1;resizable=1;rotatable=1;deletable=1;editable=1;locked=0;connectable=1;" parent="1" vertex="1">
          <mxGeometry x="1620" y="870" width="160" height="40" as="geometry" />
        </mxCell>
        <mxCell id="DKlUDa0g7rmCu-vv5rfz-186" value="Signature spells in bold" style="text;align=center;verticalAlign=middle;whiteSpace=wrap;rounded=1;fontFamily=Georgia;fontSize=15;fontColor=#667788;labelBackgroundColor=none;fontStyle=1;strokeColor=none;shadow=1;glass=0;strokeWidth=1;movable=1;resizable=1;rotatable=1;deletable=1;editable=1;locked=0;connectable=1;" parent="1" vertex="1">
          <mxGeometry x="1620" y="1220" width="160" height="40" as="geometry" />
        </mxCell>
        <mxCell id="DKlUDa0g7rmCu-vv5rfz-187" value="ââââ&#xa;Spell slot cost" style="text;align=center;verticalAlign=middle;whiteSpace=wrap;rounded=1;fontFamily=Georgia;fontSize=15;fontColor=#667788;labelBackgroundColor=none;strokeColor=none;shadow=1;glass=0;strokeWidth=1;movable=1;resizable=1;rotatable=1;deletable=1;editable=1;locked=0;connectable=1;fontStyle=1" parent="1" vertex="1">
          <mxGeometry x="1620" y="1260" width="160" height="40" as="geometry" />
        </mxCell>
        <mxCell id="-dR2T00Uhgw3VuPTZwKf-54" value="" style="html=1;rounded=0;strokeWidth=2;endArrow=none;endFill=0;dashed=1;exitX=0.633;exitY=0;exitDx=0;exitDy=0;exitPerimeter=0;labelBackgroundColor=none;shadow=1;movable=1;resizable=1;rotatable=1;deletable=1;editable=1;locked=0;connectable=1;fontColor=default;strokeColor=#667788;opacity=70;dashPattern=1 1;" parent="1" edge="1">
          <mxGeometry width="100" relative="1" as="geometry">
            <mxPoint x="1200" y="10" as="sourcePoint" />
            <mxPoint x="1200" y="1300" as="targetPoint" />
          </mxGeometry>
        </mxCell>
        <mxCell id="ByqBd_FR368xJn7YFOeK-134" value="" style="html=1;rounded=0;strokeWidth=2;endArrow=none;endFill=0;dashed=1;exitX=0.633;exitY=0;exitDx=0;exitDy=0;exitPerimeter=0;labelBackgroundColor=none;shadow=1;movable=1;resizable=1;rotatable=1;deletable=1;editable=1;locked=0;connectable=1;fontColor=default;strokeColor=#667788;opacity=70;dashPattern=1 1;" parent="1" edge="1">
          <mxGeometry width="100" relative="1" as="geometry">
            <mxPoint x="1600" y="10" as="sourcePoint" />
            <mxPoint x="1600" y="1300" as="targetPoint" />
          </mxGeometry>
        </mxCell>
        <mxCell id="-dR2T00Uhgw3VuPTZwKf-70" value="" style="html=1;rounded=0;strokeWidth=2;endArrow=none;endFill=0;dashed=1;labelBackgroundColor=none;shadow=1;movable=1;resizable=1;rotatable=1;deletable=1;editable=1;locked=0;connectable=1;fontColor=default;strokeColor=#667788;opacity=70;dashPattern=1 1;" parent="1" edge="1">
          <mxGeometry width="100" relative="1" as="geometry">
            <mxPoint x="10" y="40" as="sourcePoint" />
            <mxPoint x="1790" y="40" as="targetPoint" />
          </mxGeometry>
        </mxCell>
        <mxCell id="DKlUDa0g7rmCu-vv5rfz-8" value="" style="html=1;rounded=0;strokeWidth=2;endArrow=none;endFill=0;dashed=1;labelBackgroundColor=none;shadow=1;movable=1;resizable=1;rotatable=1;deletable=1;editable=1;locked=0;connectable=1;fontColor=default;strokeColor=#667788;opacity=70;dashPattern=1 1;" parent="1" edge="1">
          <mxGeometry width="100" relative="1" as="geometry">
            <mxPoint x="800" y="10" as="sourcePoint" />
            <mxPoint x="800" y="1300" as="targetPoint" />
          </mxGeometry>
        </mxCell>
        <mxCell id="-dR2T00Uhgw3VuPTZwKf-42" value="" style="html=1;rounded=0;strokeWidth=2;endArrow=none;endFill=0;dashed=1;labelBackgroundColor=none;shadow=1;movable=1;resizable=1;rotatable=1;deletable=1;editable=1;locked=0;connectable=1;fontColor=default;strokeColor=#667788;opacity=70;dashPattern=1 1;" parent="1" edge="1">
          <mxGeometry width="100" relative="1" as="geometry">
            <mxPoint x="400" y="10" as="sourcePoint" />
            <mxPoint x="400" y="1300" as="targetPoint" />
          </mxGeometry>
        </mxCell>
        <mxCell id="eY5dnLTpbY4zrGF3gSu3-27" value="Esoteric" style="text;align=center;verticalAlign=middle;resizable=0;points=[];autosize=0;strokeColor=none;fillColor=none;fontFamily=Helvetica;fontSize=18;fontColor=#667788;labelBackgroundColor=none;textShadow=1;" parent="1" vertex="1">
          <mxGeometry x="1640" width="120" height="40" as="geometry" />
        </mxCell>
        <mxCell id="DKlUDa0g7rmCu-vv5rfz-188" value="Spell cost bubbles text" style="locked=1;" parent="0" />
        <mxCell id="rESuhYQJdn2nmY16vAaY-74" value="âââ" style="text;align=center;verticalAlign=middle;rounded=0;fontFamily=Helvetica;fontSize=13;fontColor=default;labelBackgroundColor=none;spacing=0;spacingTop=0;spacingBottom=-5;fillColor=none;" parent="DKlUDa0g7rmCu-vv5rfz-188" vertex="1">
          <mxGeometry x="140" y="330" width="40" height="20" as="geometry" />
        </mxCell>
        <mxCell id="6rpQLIKWk_AHX--m7qB0-1" value="âââ" style="text;align=center;verticalAlign=middle;rounded=0;fontFamily=Helvetica;fontSize=13;fontColor=default;labelBackgroundColor=none;spacing=0;spacingTop=0;spacingBottom=-5;fillColor=none;" vertex="1" parent="DKlUDa0g7rmCu-vv5rfz-188">
          <mxGeometry x="340" y="370" width="40" height="20" as="geometry" />
        </mxCell>
        <mxCell id="6rpQLIKWk_AHX--m7qB0-2" value="âââ" style="text;align=center;verticalAlign=middle;rounded=0;fontFamily=Helvetica;fontSize=13;fontColor=#FFFFFF;labelBackgroundColor=none;spacing=0;spacingTop=0;spacingBottom=-5;fillColor=none;" vertex="1" parent="DKlUDa0g7rmCu-vv5rfz-188">
          <mxGeometry x="540" y="260" width="40" height="20" as="geometry" />
        </mxCell>
        <mxCell id="6rpQLIKWk_AHX--m7qB0-3" value="âââ" style="text;align=center;verticalAlign=middle;rounded=0;fontFamily=Helvetica;fontSize=13;fontColor=#FFFFFF;labelBackgroundColor=none;spacing=0;spacingTop=0;spacingBottom=-5;fillColor=none;" vertex="1" parent="DKlUDa0g7rmCu-vv5rfz-188">
          <mxGeometry x="1140" y="400" width="40" height="20" as="geometry" />
        </mxCell>
        <mxCell id="6rpQLIKWk_AHX--m7qB0-4" value="âââ" style="text;align=center;verticalAlign=middle;rounded=0;fontFamily=Helvetica;fontSize=13;fontColor=default;labelBackgroundColor=none;spacing=0;spacingTop=0;spacingBottom=-5;fillColor=none;" vertex="1" parent="DKlUDa0g7rmCu-vv5rfz-188">
          <mxGeometry x="340" y="920" width="40" height="20" as="geometry" />
        </mxCell>
        <mxCell id="6rpQLIKWk_AHX--m7qB0-5" value="âââ" style="text;align=center;verticalAlign=middle;rounded=0;fontFamily=Helvetica;fontSize=13;fontColor=default;labelBackgroundColor=none;spacing=0;spacingTop=0;spacingBottom=-5;fillColor=none;" vertex="1" parent="DKlUDa0g7rmCu-vv5rfz-188">
          <mxGeometry x="340" y="1210" width="40" height="20" as="geometry" />
        </mxCell>
        <mxCell id="6rpQLIKWk_AHX--m7qB0-6" value="âââ" style="text;align=center;verticalAlign=middle;rounded=0;fontFamily=Helvetica;fontSize=13;fontColor=default;labelBackgroundColor=none;spacing=0;spacingTop=0;spacingBottom=-5;fillColor=none;" vertex="1" parent="DKlUDa0g7rmCu-vv5rfz-188">
          <mxGeometry x="740" y="860" width="40" height="20" as="geometry" />
        </mxCell>
        <mxCell id="6rpQLIKWk_AHX--m7qB0-7" value="âââ" style="text;align=center;verticalAlign=middle;rounded=0;fontFamily=Helvetica;fontSize=13;fontColor=default;labelBackgroundColor=none;spacing=0;spacingTop=0;spacingBottom=-5;fillColor=none;" vertex="1" parent="DKlUDa0g7rmCu-vv5rfz-188">
          <mxGeometry x="1140" y="1270" width="40" height="20" as="geometry" />
        </mxCell>
        <mxCell id="6rpQLIKWk_AHX--m7qB0-8" value="âââ" style="text;align=center;verticalAlign=middle;rounded=0;fontFamily=Helvetica;fontSize=13;fontColor=default;labelBackgroundColor=none;spacing=0;spacingTop=0;spacingBottom=-5;fillColor=none;" vertex="1" parent="DKlUDa0g7rmCu-vv5rfz-188">
          <mxGeometry x="1140" y="860" width="40" height="20" as="geometry" />
        </mxCell>
        <mxCell id="6rpQLIKWk_AHX--m7qB0-9" value="âââ" style="text;align=center;verticalAlign=middle;rounded=0;fontFamily=Helvetica;fontSize=13;fontColor=default;labelBackgroundColor=none;spacing=0;spacingTop=0;spacingBottom=-5;fillColor=none;" vertex="1" parent="DKlUDa0g7rmCu-vv5rfz-188">
          <mxGeometry x="1340" y="370" width="40" height="20" as="geometry" />
        </mxCell>
        <mxCell id="6rpQLIKWk_AHX--m7qB0-10" value="âââ" style="text;align=center;verticalAlign=middle;rounded=0;fontFamily=Helvetica;fontSize=13;fontColor=default;labelBackgroundColor=none;spacing=0;spacingTop=0;spacingBottom=-5;fillColor=none;" vertex="1" parent="DKlUDa0g7rmCu-vv5rfz-188">
          <mxGeometry x="1140" y="330" width="40" height="20" as="geometry" />
        </mxCell>
        <mxCell id="6rpQLIKWk_AHX--m7qB0-11" value="âââ" style="text;align=center;verticalAlign=middle;rounded=0;fontFamily=Helvetica;fontSize=13;fontColor=default;labelBackgroundColor=none;spacing=0;spacingTop=0;spacingBottom=-5;fillColor=none;" vertex="1" parent="DKlUDa0g7rmCu-vv5rfz-188">
          <mxGeometry x="940" y="700" width="40" height="20" as="geometry" />
        </mxCell>
        <mxCell id="6rpQLIKWk_AHX--m7qB0-12" value="âââ" style="text;align=center;verticalAlign=middle;rounded=0;fontFamily=Helvetica;fontSize=13;fontColor=default;labelBackgroundColor=none;spacing=0;spacingTop=0;spacingBottom=-5;fillColor=none;" vertex="1" parent="DKlUDa0g7rmCu-vv5rfz-188">
          <mxGeometry x="540" y="860" width="40" height="20" as="geometry" />
        </mxCell>
        <mxCell id="6rpQLIKWk_AHX--m7qB0-13" value="âââ" style="text;align=center;verticalAlign=middle;rounded=0;fontFamily=Helvetica;fontSize=13;fontColor=#FFFFFF;labelBackgroundColor=none;spacing=0;spacingTop=0;spacingBottom=-5;fillColor=none;" vertex="1" parent="DKlUDa0g7rmCu-vv5rfz-188">
          <mxGeometry x="740" y="1210" width="40" height="20" as="geometry" />
        </mxCell>
        <mxCell id="6rpQLIKWk_AHX--m7qB0-14" value="âââ" style="text;align=center;verticalAlign=middle;rounded=0;fontFamily=Helvetica;fontSize=13;fontColor=default;labelBackgroundColor=none;spacing=0;spacingTop=0;spacingBottom=-5;fillColor=none;" vertex="1" parent="DKlUDa0g7rmCu-vv5rfz-188">
          <mxGeometry x="1340" y="580" width="40" height="20" as="geometry" />
        </mxCell>
        <mxCell id="6rpQLIKWk_AHX--m7qB0-15" value="âââ" style="text;align=center;verticalAlign=middle;rounded=0;fontFamily=Helvetica;fontSize=13;fontColor=default;labelBackgroundColor=none;spacing=0;spacingTop=0;spacingBottom=-5;fillColor=none;" vertex="1" parent="DKlUDa0g7rmCu-vv5rfz-188">
          <mxGeometry x="1140" y="260" width="40" height="20" as="geometry" />
        </mxCell>
        <mxCell id="6rpQLIKWk_AHX--m7qB0-16" value="âââ" style="text;align=center;verticalAlign=middle;rounded=0;fontFamily=Helvetica;fontSize=13;fontColor=default;labelBackgroundColor=none;spacing=0;spacingTop=0;spacingBottom=-5;fillColor=none;" vertex="1" parent="DKlUDa0g7rmCu-vv5rfz-188">
          <mxGeometry x="1540" y="330" width="40" height="20" as="geometry" />
        </mxCell>
        <mxCell id="6rpQLIKWk_AHX--m7qB0-17" value="âââ" style="text;align=center;verticalAlign=middle;rounded=0;fontFamily=Helvetica;fontSize=13;fontColor=default;labelBackgroundColor=none;spacing=0;spacingTop=0;spacingBottom=-5;fillColor=none;" vertex="1" parent="DKlUDa0g7rmCu-vv5rfz-188">
          <mxGeometry x="1340" y="700" width="40" height="20" as="geometry" />
        </mxCell>
        <mxCell id="6rpQLIKWk_AHX--m7qB0-18" value="âââ" style="text;align=center;verticalAlign=middle;rounded=0;fontFamily=Helvetica;fontSize=13;fontColor=#FFFFFF;labelBackgroundColor=none;spacing=0;spacingTop=0;spacingBottom=-5;fillColor=none;" vertex="1" parent="DKlUDa0g7rmCu-vv5rfz-188">
          <mxGeometry x="1340" y="500" width="40" height="20" as="geometry" />
        </mxCell>
        <mxCell id="6rpQLIKWk_AHX--m7qB0-19" value="âââ" style="text;align=center;verticalAlign=middle;rounded=0;fontFamily=Helvetica;fontSize=13;fontColor=default;labelBackgroundColor=none;spacing=0;spacingTop=0;spacingBottom=-5;fillColor=none;" vertex="1" parent="DKlUDa0g7rmCu-vv5rfz-188">
          <mxGeometry x="940" y="290" width="40" height="20" as="geometry" />
        </mxCell>
        <mxCell id="6rpQLIKWk_AHX--m7qB0-20" value="âââ" style="text;align=center;verticalAlign=middle;rounded=0;fontFamily=Helvetica;fontSize=13;fontColor=#FFFFFF;labelBackgroundColor=none;spacing=0;spacingTop=0;spacingBottom=-5;fillColor=none;" vertex="1" parent="DKlUDa0g7rmCu-vv5rfz-188">
          <mxGeometry x="340" y="1150" width="40" height="20" as="geometry" />
        </mxCell>
        <mxCell id="6rpQLIKWk_AHX--m7qB0-21" value="âââ" style="text;align=center;verticalAlign=middle;rounded=0;fontFamily=Helvetica;fontSize=13;fontColor=#FFFFFF;labelBackgroundColor=none;spacing=0;spacingTop=0;spacingBottom=-5;fillColor=none;" vertex="1" parent="DKlUDa0g7rmCu-vv5rfz-188">
          <mxGeometry x="940" y="1110" width="40" height="20" as="geometry" />
        </mxCell>
        <mxCell id="6rpQLIKWk_AHX--m7qB0-22" value="âââ" style="text;align=center;verticalAlign=middle;rounded=0;fontFamily=Helvetica;fontSize=13;fontColor=default;labelBackgroundColor=none;spacing=0;spacingTop=0;spacingBottom=-5;fillColor=none;" vertex="1" parent="DKlUDa0g7rmCu-vv5rfz-188">
          <mxGeometry x="740" y="920" width="40" height="20" as="geometry" />
        </mxCell>
        <mxCell id="6rpQLIKWk_AHX--m7qB0-23" value="âââ" style="text;align=center;verticalAlign=middle;rounded=0;fontFamily=Helvetica;fontSize=13;fontColor=default;labelBackgroundColor=none;spacing=0;spacingTop=0;spacingBottom=-5;fillColor=none;" vertex="1" parent="DKlUDa0g7rmCu-vv5rfz-188">
          <mxGeometry x="1140" y="920" width="40" height="20" as="geometry" />
        </mxCell>
        <mxCell id="6rpQLIKWk_AHX--m7qB0-24" value="âââ" style="text;align=center;verticalAlign=middle;rounded=0;fontFamily=Helvetica;fontSize=13;fontColor=#FFFFFF;labelBackgroundColor=none;spacing=0;spacingTop=0;spacingBottom=-5;fillColor=none;" vertex="1" parent="DKlUDa0g7rmCu-vv5rfz-188">
          <mxGeometry x="1140" y="1150" width="40" height="20" as="geometry" />
        </mxCell>
        <mxCell id="6rpQLIKWk_AHX--m7qB0-25" value="âââ" style="text;align=center;verticalAlign=middle;rounded=0;fontFamily=Helvetica;fontSize=13;fontColor=default;labelBackgroundColor=none;spacing=0;spacingTop=0;spacingBottom=-5;fillColor=none;" vertex="1" parent="DKlUDa0g7rmCu-vv5rfz-188">
          <mxGeometry x="1540" y="1180" width="40" height="20" as="geometry" />
        </mxCell>
        <mxCell id="6rpQLIKWk_AHX--m7qB0-26" value="âââ" style="text;align=center;verticalAlign=middle;rounded=0;fontFamily=Helvetica;fontSize=13;fontColor=default;labelBackgroundColor=none;spacing=0;spacingTop=0;spacingBottom=-5;fillColor=none;" vertex="1" parent="DKlUDa0g7rmCu-vv5rfz-188">
          <mxGeometry x="1340" y="1180" width="40" height="20" as="geometry" />
        </mxCell>
        <mxCell id="6rpQLIKWk_AHX--m7qB0-27" value="âââ" style="text;align=center;verticalAlign=middle;rounded=0;fontFamily=Helvetica;fontSize=13;fontColor=default;labelBackgroundColor=none;spacing=0;spacingTop=0;spacingBottom=-5;fillColor=none;" vertex="1" parent="DKlUDa0g7rmCu-vv5rfz-188">
          <mxGeometry x="1340" y="760" width="40" height="20" as="geometry" />
        </mxCell>
        <mxCell id="6rpQLIKWk_AHX--m7qB0-28" value="âââ" style="text;align=center;verticalAlign=middle;rounded=0;fontFamily=Helvetica;fontSize=13;fontColor=default;labelBackgroundColor=none;spacing=0;spacingTop=0;spacingBottom=-5;fillColor=none;" vertex="1" parent="DKlUDa0g7rmCu-vv5rfz-188">
          <mxGeometry x="940" y="760" width="40" height="20" as="geometry" />
        </mxCell>
        <mxCell id="6rpQLIKWk_AHX--m7qB0-29" value="âââ" style="text;align=center;verticalAlign=middle;rounded=0;fontFamily=Helvetica;fontSize=13;fontColor=default;labelBackgroundColor=none;spacing=0;spacingTop=0;spacingBottom=-5;fillColor=none;" vertex="1" parent="DKlUDa0g7rmCu-vv5rfz-188">
          <mxGeometry x="530" y="1240" width="40" height="20" as="geometry" />
        </mxCell>
        <mxCell id="6rpQLIKWk_AHX--m7qB0-30" value="âââ" style="text;align=center;verticalAlign=middle;rounded=0;fontFamily=Helvetica;fontSize=13;fontColor=default;labelBackgroundColor=none;spacing=0;spacingTop=0;spacingBottom=-5;fillColor=none;" vertex="1" parent="DKlUDa0g7rmCu-vv5rfz-188">
          <mxGeometry x="740" y="1150" width="40" height="20" as="geometry" />
        </mxCell>
        <mxCell id="6rpQLIKWk_AHX--m7qB0-31" value="âââ" style="text;align=center;verticalAlign=middle;rounded=0;fontFamily=Helvetica;fontSize=13;fontColor=default;labelBackgroundColor=none;spacing=0;spacingTop=0;spacingBottom=-5;fillColor=none;" vertex="1" parent="DKlUDa0g7rmCu-vv5rfz-188">
          <mxGeometry x="1140" y="1210" width="40" height="20" as="geometry" />
        </mxCell>
        <mxCell id="6rpQLIKWk_AHX--m7qB0-32" value="âââ" style="text;align=center;verticalAlign=middle;rounded=0;fontFamily=Helvetica;fontSize=13;fontColor=#FFFFFF;labelBackgroundColor=none;spacing=0;spacingTop=0;spacingBottom=-5;fillColor=none;" vertex="1" parent="DKlUDa0g7rmCu-vv5rfz-188">
          <mxGeometry x="1340" y="1110" width="40" height="20" as="geometry" />
        </mxCell>
        <mxCell id="6rpQLIKWk_AHX--m7qB0-33" value="âââ" style="text;align=center;verticalAlign=middle;rounded=0;fontFamily=Helvetica;fontSize=13;fontColor=default;labelBackgroundColor=none;spacing=0;spacingTop=0;spacingBottom=-5;fillColor=none;" vertex="1" parent="DKlUDa0g7rmCu-vv5rfz-188">
          <mxGeometry x="1540" y="1110" width="40" height="20" as="geometry" />
        </mxCell>
        <mxCell id="6rpQLIKWk_AHX--m7qB0-34" value="âââ" style="text;align=center;verticalAlign=middle;rounded=0;fontFamily=Helvetica;fontSize=13;fontColor=default;labelBackgroundColor=none;spacing=0;spacingTop=0;spacingBottom=-5;fillColor=none;" vertex="1" parent="DKlUDa0g7rmCu-vv5rfz-188">
          <mxGeometry x="940" y="990" width="40" height="20" as="geometry" />
        </mxCell>
        <mxCell id="6rpQLIKWk_AHX--m7qB0-35" value="âââ" style="text;align=center;verticalAlign=middle;rounded=0;fontFamily=Helvetica;fontSize=13;fontColor=default;labelBackgroundColor=none;spacing=0;spacingTop=0;spacingBottom=-5;fillColor=none;" vertex="1" parent="DKlUDa0g7rmCu-vv5rfz-188">
          <mxGeometry x="940" y="890" width="40" height="20" as="geometry" />
        </mxCell>
        <mxCell id="6rpQLIKWk_AHX--m7qB0-36" value="âââ" style="text;align=center;verticalAlign=middle;rounded=0;fontFamily=Helvetica;fontSize=13;fontColor=default;labelBackgroundColor=none;spacing=0;spacingTop=0;spacingBottom=-5;fillColor=none;" vertex="1" parent="DKlUDa0g7rmCu-vv5rfz-188">
          <mxGeometry x="740" y="1010" width="40" height="20" as="geometry" />
        </mxCell>
        <mxCell id="6rpQLIKWk_AHX--m7qB0-37" value="âââ" style="text;align=center;verticalAlign=middle;rounded=0;fontFamily=Helvetica;fontSize=13;fontColor=default;labelBackgroundColor=none;spacing=0;spacingTop=0;spacingBottom=-5;fillColor=none;" vertex="1" parent="DKlUDa0g7rmCu-vv5rfz-188">
          <mxGeometry x="540" y="980" width="40" height="20" as="geometry" />
        </mxCell>
        <mxCell id="6rpQLIKWk_AHX--m7qB0-38" value="âââ" style="text;align=center;verticalAlign=middle;rounded=0;fontFamily=Helvetica;fontSize=13;fontColor=default;labelBackgroundColor=none;spacing=0;spacingTop=0;spacingBottom=-5;fillColor=none;" vertex="1" parent="DKlUDa0g7rmCu-vv5rfz-188">
          <mxGeometry x="540" y="920" width="40" height="20" as="geometry" />
        </mxCell>
        <mxCell id="6rpQLIKWk_AHX--m7qB0-39" value="âââ" style="text;align=center;verticalAlign=middle;rounded=0;fontFamily=Helvetica;fontSize=13;fontColor=#FFFFFF;labelBackgroundColor=none;spacing=0;spacingTop=0;spacingBottom=-5;fillColor=none;" vertex="1" parent="DKlUDa0g7rmCu-vv5rfz-188">
          <mxGeometry x="540" y="760" width="40" height="20" as="geometry" />
        </mxCell>
        <mxCell id="6rpQLIKWk_AHX--m7qB0-40" value="âââ" style="text;align=center;verticalAlign=middle;rounded=0;fontFamily=Helvetica;fontSize=13;fontColor=#FFFFFF;labelBackgroundColor=none;spacing=0;spacingTop=0;spacingBottom=-5;fillColor=none;" vertex="1" parent="DKlUDa0g7rmCu-vv5rfz-188">
          <mxGeometry x="540" y="700" width="40" height="20" as="geometry" />
        </mxCell>
        <mxCell id="6rpQLIKWk_AHX--m7qB0-41" value="âââ" style="text;align=center;verticalAlign=middle;rounded=0;fontFamily=Helvetica;fontSize=13;fontColor=default;labelBackgroundColor=none;spacing=0;spacingTop=0;spacingBottom=-5;fillColor=none;" vertex="1" parent="DKlUDa0g7rmCu-vv5rfz-188">
          <mxGeometry x="740" y="700" width="40" height="20" as="geometry" />
        </mxCell>
        <mxCell id="6rpQLIKWk_AHX--m7qB0-42" value="âââ" style="text;align=center;verticalAlign=middle;rounded=0;fontFamily=Helvetica;fontSize=13;fontColor=default;labelBackgroundColor=none;spacing=0;spacingTop=0;spacingBottom=-5;fillColor=none;" vertex="1" parent="DKlUDa0g7rmCu-vv5rfz-188">
          <mxGeometry x="1140" y="760" width="40" height="20" as="geometry" />
        </mxCell>
        <mxCell id="6rpQLIKWk_AHX--m7qB0-43" value="âââ" style="text;align=center;verticalAlign=middle;rounded=0;fontFamily=Helvetica;fontSize=13;fontColor=default;labelBackgroundColor=none;spacing=0;spacingTop=0;spacingBottom=-5;fillColor=none;" vertex="1" parent="DKlUDa0g7rmCu-vv5rfz-188">
          <mxGeometry x="1140" y="700" width="40" height="20" as="geometry" />
        </mxCell>
        <mxCell id="6rpQLIKWk_AHX--m7qB0-44" value="âââ" style="text;align=center;verticalAlign=middle;rounded=0;fontFamily=Helvetica;fontSize=13;fontColor=default;labelBackgroundColor=none;spacing=0;spacingTop=0;spacingBottom=-5;fillColor=none;" vertex="1" parent="DKlUDa0g7rmCu-vv5rfz-188">
          <mxGeometry x="1540" y="520" width="40" height="20" as="geometry" />
        </mxCell>
        <mxCell id="6rpQLIKWk_AHX--m7qB0-45" value="âââ" style="text;align=center;verticalAlign=middle;rounded=0;fontFamily=Helvetica;fontSize=13;fontColor=default;labelBackgroundColor=none;spacing=0;spacingTop=0;spacingBottom=-5;fillColor=none;" vertex="1" parent="DKlUDa0g7rmCu-vv5rfz-188">
          <mxGeometry x="1540" y="600" width="40" height="20" as="geometry" />
        </mxCell>
        <mxCell id="6rpQLIKWk_AHX--m7qB0-46" value="âââ" style="text;align=center;verticalAlign=middle;rounded=0;fontFamily=Helvetica;fontSize=13;fontColor=default;labelBackgroundColor=none;spacing=0;spacingTop=0;spacingBottom=-5;fillColor=none;" vertex="1" parent="DKlUDa0g7rmCu-vv5rfz-188">
          <mxGeometry x="1740" y="730" width="40" height="20" as="geometry" />
        </mxCell>
        <mxCell id="6rpQLIKWk_AHX--m7qB0-47" value="âââ" style="text;align=center;verticalAlign=middle;rounded=0;fontFamily=Helvetica;fontSize=13;fontColor=default;labelBackgroundColor=none;spacing=0;spacingTop=0;spacingBottom=-5;fillColor=none;" vertex="1" parent="DKlUDa0g7rmCu-vv5rfz-188">
          <mxGeometry x="940" y="400" width="40" height="20" as="geometry" />
        </mxCell>
        <mxCell id="6rpQLIKWk_AHX--m7qB0-48" value="âââ" style="text;align=center;verticalAlign=middle;rounded=0;fontFamily=Helvetica;fontSize=13;fontColor=#FFFFFF;labelBackgroundColor=none;spacing=0;spacingTop=0;spacingBottom=-5;fillColor=none;" vertex="1" parent="DKlUDa0g7rmCu-vv5rfz-188">
          <mxGeometry x="740" y="370" width="40" height="20" as="geometry" />
        </mxCell>
        <mxCell id="6rpQLIKWk_AHX--m7qB0-49" value="âââ" style="text;align=center;verticalAlign=middle;rounded=0;fontFamily=Helvetica;fontSize=13;fontColor=default;labelBackgroundColor=none;spacing=0;spacingTop=0;spacingBottom=-5;fillColor=none;" vertex="1" parent="DKlUDa0g7rmCu-vv5rfz-188">
          <mxGeometry x="540" y="330" width="40" height="20" as="geometry" />
        </mxCell>
        <mxCell id="6rpQLIKWk_AHX--m7qB0-50" value="âââ" style="text;align=center;verticalAlign=middle;rounded=0;fontFamily=Helvetica;fontSize=13;fontColor=default;labelBackgroundColor=none;spacing=0;spacingTop=0;spacingBottom=-5;fillColor=none;" vertex="1" parent="DKlUDa0g7rmCu-vv5rfz-188">
          <mxGeometry x="540" y="100" width="40" height="20" as="geometry" />
        </mxCell>
        <mxCell id="6rpQLIKWk_AHX--m7qB0-51" value="âââ" style="text;align=center;verticalAlign=middle;rounded=0;fontFamily=Helvetica;fontSize=13;fontColor=default;labelBackgroundColor=none;spacing=0;spacingTop=0;spacingBottom=-5;fillColor=none;" vertex="1" parent="DKlUDa0g7rmCu-vv5rfz-188">
          <mxGeometry x="740" y="160" width="40" height="20" as="geometry" />
        </mxCell>
        <mxCell id="6rpQLIKWk_AHX--m7qB0-52" value="âââ" style="text;align=center;verticalAlign=middle;rounded=0;fontFamily=Helvetica;fontSize=13;fontColor=default;labelBackgroundColor=none;spacing=0;spacingTop=0;spacingBottom=-5;fillColor=none;" vertex="1" parent="DKlUDa0g7rmCu-vv5rfz-188">
          <mxGeometry x="940" y="100" width="40" height="20" as="geometry" />
        </mxCell>
        <mxCell id="6rpQLIKWk_AHX--m7qB0-53" value="âââ" style="text;align=center;verticalAlign=middle;rounded=0;fontFamily=Helvetica;fontSize=13;fontColor=default;labelBackgroundColor=none;spacing=0;spacingTop=0;spacingBottom=-5;fillColor=none;" vertex="1" parent="DKlUDa0g7rmCu-vv5rfz-188">
          <mxGeometry x="1140" y="160" width="40" height="20" as="geometry" />
        </mxCell>
        <mxCell id="6rpQLIKWk_AHX--m7qB0-54" value="âââ" style="text;align=center;verticalAlign=middle;rounded=0;fontFamily=Helvetica;fontSize=13;fontColor=default;labelBackgroundColor=none;spacing=0;spacingTop=0;spacingBottom=-5;fillColor=none;" vertex="1" parent="DKlUDa0g7rmCu-vv5rfz-188">
          <mxGeometry x="1540" y="130" width="40" height="20" as="geometry" />
        </mxCell>
        <mxCell id="DKlUDa0g7rmCu-vv5rfz-245" value="Circle Pre-requisites text" style="locked=1;" parent="0" />
        <mxCell id="rESuhYQJdn2nmY16vAaY-30" value="Circle 15" style="text;align=right;verticalAlign=bottom;resizable=0;points=[];autosize=1;strokeColor=none;fillColor=none;fontFamily=Georgia;fontSize=13;fontColor=#667788;labelBackgroundColor=none;fontStyle=3" parent="DKlUDa0g7rmCu-vv5rfz-245" vertex="1">
          <mxGeometry x="510" y="50" width="70" height="30" as="geometry" />
        </mxCell>
        <mxCell id="hBaOASuxtEO1BesTsGRn-1" value="Circle 15" style="text;align=right;verticalAlign=bottom;resizable=0;points=[];autosize=1;strokeColor=none;fillColor=none;fontFamily=Georgia;fontSize=13;fontColor=#667788;labelBackgroundColor=none;fontStyle=3" parent="DKlUDa0g7rmCu-vv5rfz-245" vertex="1">
          <mxGeometry x="710" y="110" width="70" height="30" as="geometry" />
        </mxCell>
        <mxCell id="hBaOASuxtEO1BesTsGRn-2" value="Circle 40" style="text;align=right;verticalAlign=bottom;resizable=0;points=[];autosize=1;strokeColor=none;fillColor=none;fontFamily=Georgia;fontSize=13;fontColor=#667788;labelBackgroundColor=none;fontStyle=3" parent="DKlUDa0g7rmCu-vv5rfz-245" vertex="1">
          <mxGeometry x="1310" y="450" width="70" height="30" as="geometry" />
        </mxCell>
        <mxCell id="hBaOASuxtEO1BesTsGRn-3" value="Circle 40" style="text;align=right;verticalAlign=bottom;resizable=0;points=[];autosize=1;strokeColor=none;fillColor=none;fontFamily=Georgia;fontSize=13;fontColor=#667788;labelBackgroundColor=none;fontStyle=3" parent="DKlUDa0g7rmCu-vv5rfz-245" vertex="1">
          <mxGeometry x="1510" y="470" width="70" height="30" as="geometry" />
        </mxCell>
        <mxCell id="hBaOASuxtEO1BesTsGRn-4" value="Circle 40" style="text;align=right;verticalAlign=bottom;resizable=0;points=[];autosize=1;strokeColor=none;fillColor=none;fontFamily=Georgia;fontSize=13;fontColor=#667788;labelBackgroundColor=none;fontStyle=3" parent="DKlUDa0g7rmCu-vv5rfz-245" vertex="1">
          <mxGeometry x="1310" y="530" width="70" height="30" as="geometry" />
        </mxCell>
        <mxCell id="hBaOASuxtEO1BesTsGRn-5" value="Circle 50" style="text;align=right;verticalAlign=bottom;resizable=0;points=[];autosize=1;strokeColor=none;fillColor=none;fontFamily=Georgia;fontSize=13;fontColor=#667788;labelBackgroundColor=none;fontStyle=3" parent="DKlUDa0g7rmCu-vv5rfz-245" vertex="1">
          <mxGeometry x="1510" y="550" width="70" height="30" as="geometry" />
        </mxCell>
        <mxCell id="hBaOASuxtEO1BesTsGRn-6" value="Circle 100" style="text;align=right;verticalAlign=bottom;resizable=0;points=[];autosize=1;strokeColor=none;fillColor=none;fontFamily=Georgia;fontSize=13;fontColor=#667788;labelBackgroundColor=none;fontStyle=3" parent="DKlUDa0g7rmCu-vv5rfz-245" vertex="1">
          <mxGeometry x="1700" y="680" width="80" height="30" as="geometry" />
        </mxCell>
        <mxCell id="hBaOASuxtEO1BesTsGRn-7" value="Circle 40" style="text;align=right;verticalAlign=bottom;resizable=0;points=[];autosize=1;strokeColor=none;fillColor=none;fontFamily=Georgia;fontSize=13;fontColor=#667788;labelBackgroundColor=none;fontStyle=3" parent="DKlUDa0g7rmCu-vv5rfz-245" vertex="1">
          <mxGeometry x="1110" y="650" width="70" height="30" as="geometry" />
        </mxCell>
        <mxCell id="hBaOASuxtEO1BesTsGRn-8" value="Circle 15" style="text;align=right;verticalAlign=bottom;resizable=0;points=[];autosize=1;strokeColor=none;fillColor=none;fontFamily=Georgia;fontSize=13;fontColor=#667788;labelBackgroundColor=none;fontStyle=3" parent="DKlUDa0g7rmCu-vv5rfz-245" vertex="1">
          <mxGeometry x="710" y="650" width="70" height="30" as="geometry" />
        </mxCell>
        <mxCell id="hBaOASuxtEO1BesTsGRn-9" value="Circle 2" style="text;align=right;verticalAlign=bottom;resizable=0;points=[];autosize=1;strokeColor=none;fillColor=none;fontFamily=Georgia;fontSize=13;fontColor=#667788;labelBackgroundColor=none;fontStyle=3" parent="DKlUDa0g7rmCu-vv5rfz-245" vertex="1">
          <mxGeometry x="310" y="320" width="70" height="30" as="geometry" />
        </mxCell>
        <mxCell id="hBaOASuxtEO1BesTsGRn-10" value="Circle 10" style="text;align=right;verticalAlign=bottom;resizable=0;points=[];autosize=1;strokeColor=none;fillColor=none;fontFamily=Georgia;fontSize=13;fontColor=#667788;labelBackgroundColor=none;fontStyle=3" parent="DKlUDa0g7rmCu-vv5rfz-245" vertex="1">
          <mxGeometry x="510" y="650" width="70" height="30" as="geometry" />
        </mxCell>
        <mxCell id="hBaOASuxtEO1BesTsGRn-11" value="Circle 10" style="text;align=right;verticalAlign=bottom;resizable=0;points=[];autosize=1;strokeColor=none;fillColor=none;fontFamily=Georgia;fontSize=13;fontColor=#667788;labelBackgroundColor=none;fontStyle=3" parent="DKlUDa0g7rmCu-vv5rfz-245" vertex="1">
          <mxGeometry x="510" y="710" width="70" height="30" as="geometry" />
        </mxCell>
        <mxCell id="hBaOASuxtEO1BesTsGRn-12" value="Circle 10" style="text;align=right;verticalAlign=bottom;resizable=0;points=[];autosize=1;strokeColor=none;fillColor=none;fontFamily=Georgia;fontSize=13;fontColor=#667788;labelBackgroundColor=none;fontStyle=3" parent="DKlUDa0g7rmCu-vv5rfz-245" vertex="1">
          <mxGeometry x="910" y="1060" width="70" height="30" as="geometry" />
        </mxCell>
        <mxCell id="hBaOASuxtEO1BesTsGRn-13" value="Circle 5" style="text;align=right;verticalAlign=bottom;resizable=0;points=[];autosize=1;strokeColor=none;fillColor=none;fontFamily=Georgia;fontSize=13;fontColor=#667788;labelBackgroundColor=none;fontStyle=3" parent="DKlUDa0g7rmCu-vv5rfz-245" vertex="1">
          <mxGeometry x="710" y="1100" width="70" height="30" as="geometry" />
        </mxCell>
        <mxCell id="DKlUDa0g7rmCu-vv5rfz-268" value="Spell Pre-requisites text" style="locked=1;" parent="0" />
        <mxCell id="rESuhYQJdn2nmY16vAaY-67" value="Requires SET or TF" style="text;align=left;verticalAlign=top;resizable=0;points=[];autosize=1;strokeColor=none;fillColor=none;fontFamily=Georgia;fontSize=13;fontColor=#667788;labelBackgroundColor=none;spacing=0;spacingBottom=0;spacingTop=-4;fontStyle=3" parent="DKlUDa0g7rmCu-vv5rfz-268" vertex="1">
          <mxGeometry x="820" y="120" width="130" height="20" as="geometry" />
        </mxCell>
        <mxCell id="Pr3LXegyoYwMrFUZYJ9y-1" value="Requires TV or SOD" style="text;align=left;verticalAlign=top;resizable=0;points=[];autosize=1;strokeColor=none;fillColor=none;fontFamily=Georgia;fontSize=13;fontColor=#667788;labelBackgroundColor=none;spacing=0;spacingBottom=0;spacingTop=-4;fontStyle=3" parent="DKlUDa0g7rmCu-vv5rfz-268" vertex="1">
          <mxGeometry x="1420" y="150" width="140" height="20" as="geometry" />
        </mxCell>
        <mxCell id="Pr3LXegyoYwMrFUZYJ9y-2" value="Requires DO or Dazzle" style="text;align=left;verticalAlign=top;resizable=0;points=[];autosize=1;strokeColor=none;fillColor=none;fontFamily=Georgia;fontSize=13;fontColor=#667788;labelBackgroundColor=none;spacing=0;spacingBottom=0;spacingTop=-4;fontStyle=3" parent="DKlUDa0g7rmCu-vv5rfz-268" vertex="1">
          <mxGeometry x="620" y="310" width="150" height="20" as="geometry" />
        </mxCell>
        <mxCell id="Pr3LXegyoYwMrFUZYJ9y-3" value="Requires DO or Dazzle" style="text;align=left;verticalAlign=top;resizable=0;points=[];autosize=1;strokeColor=none;fillColor=none;fontFamily=Georgia;fontSize=13;fontColor=#667788;labelBackgroundColor=none;spacing=0;spacingBottom=0;spacingTop=-4;fontStyle=3" parent="DKlUDa0g7rmCu-vv5rfz-268" vertex="1">
          <mxGeometry x="1020" y="350" width="150" height="20" as="geometry" />
        </mxCell>
        <mxCell id="Pr3LXegyoYwMrFUZYJ9y-4" value="Requires DO or Burn" style="text;align=left;verticalAlign=top;resizable=0;points=[];autosize=1;strokeColor=none;fillColor=none;fontFamily=Georgia;fontSize=13;fontColor=#667788;labelBackgroundColor=none;spacing=0;spacingBottom=0;spacingTop=-4;fontStyle=3" parent="DKlUDa0g7rmCu-vv5rfz-268" vertex="1">
          <mxGeometry x="1220" y="520" width="140" height="20" as="geometry" />
        </mxCell>
        <mxCell id="Pr3LXegyoYwMrFUZYJ9y-7" value="Requires DO or Dazzle" style="text;align=left;verticalAlign=top;resizable=0;points=[];autosize=1;strokeColor=none;fillColor=none;fontFamily=Georgia;fontSize=13;fontColor=#667788;labelBackgroundColor=none;spacing=0;spacingBottom=0;spacingTop=-4;fontStyle=3" parent="DKlUDa0g7rmCu-vv5rfz-268" vertex="1">
          <mxGeometry x="620" y="390" width="150" height="20" as="geometry" />
        </mxCell>
        <mxCell id="Pr3LXegyoYwMrFUZYJ9y-10" value="Requires DG or Locate" style="text;align=left;verticalAlign=top;resizable=0;points=[];autosize=1;strokeColor=none;fillColor=none;fontFamily=Georgia;fontSize=13;fontColor=#667788;labelBackgroundColor=none;spacing=0;spacingBottom=0;spacingTop=-4;fontStyle=3" parent="DKlUDa0g7rmCu-vv5rfz-268" vertex="1">
          <mxGeometry x="820" y="420" width="150" height="20" as="geometry" />
        </mxCell>
        <mxCell id="Pr3LXegyoYwMrFUZYJ9y-12" value="Requires AUS, PG, or ART" style="text;align=left;verticalAlign=top;resizable=0;points=[];autosize=1;strokeColor=none;fillColor=none;fontFamily=Georgia;fontSize=13;fontColor=#667788;labelBackgroundColor=none;spacing=0;spacingBottom=0;spacingTop=-4;fontStyle=3" parent="DKlUDa0g7rmCu-vv5rfz-268" vertex="1">
          <mxGeometry x="620" y="880" width="170" height="20" as="geometry" />
        </mxCell>
        <mxCell id="Pr3LXegyoYwMrFUZYJ9y-13" value="Requires AUS, PG, or ART" style="text;align=left;verticalAlign=top;resizable=0;points=[];autosize=1;strokeColor=none;fillColor=none;fontFamily=Georgia;fontSize=13;fontColor=#667788;labelBackgroundColor=none;spacing=0;spacingBottom=0;spacingTop=-4;fontStyle=3" parent="DKlUDa0g7rmCu-vv5rfz-268" vertex="1">
          <mxGeometry x="1020" y="940" width="170" height="20" as="geometry" />
        </mxCell>
        <mxCell id="Pr3LXegyoYwMrFUZYJ9y-14" value="Requires PSY or Sleep" style="text;align=left;verticalAlign=top;resizable=0;points=[];autosize=1;strokeColor=none;fillColor=none;fontFamily=Georgia;fontSize=13;fontColor=#667788;labelBackgroundColor=none;spacing=0;spacingBottom=0;spacingTop=-4;fontStyle=3" parent="DKlUDa0g7rmCu-vv5rfz-268" vertex="1">
          <mxGeometry x="1020" y="1230" width="150" height="20" as="geometry" />
        </mxCell>
        <mxCell id="Pr3LXegyoYwMrFUZYJ9y-15" value="Requires PD or WD" style="text;align=left;verticalAlign=top;resizable=0;points=[];autosize=1;strokeColor=none;fillColor=none;fontFamily=Georgia;fontSize=13;fontColor=#667788;labelBackgroundColor=none;spacing=0;spacingBottom=0;spacingTop=-4;fontStyle=3" parent="DKlUDa0g7rmCu-vv5rfz-268" vertex="1">
          <mxGeometry x="620" y="720" width="130" height="20" as="geometry" />
        </mxCell>
        <mxCell id="Pr3LXegyoYwMrFUZYJ9y-17" value="Requires AUS, PG, or ART" style="text;align=left;verticalAlign=top;resizable=0;points=[];autosize=1;strokeColor=none;fillColor=none;fontFamily=Georgia;fontSize=13;fontColor=#667788;labelBackgroundColor=none;spacing=0;spacingBottom=0;spacingTop=-4;fontStyle=3" parent="DKlUDa0g7rmCu-vv5rfz-268" vertex="1">
          <mxGeometry x="1020" y="880" width="170" height="20" as="geometry" />
        </mxCell>
        <mxCell id="Pr3LXegyoYwMrFUZYJ9y-18" value="Requires AUS, PG, or ART" style="text;align=left;verticalAlign=top;resizable=0;points=[];autosize=1;strokeColor=none;fillColor=none;fontFamily=Georgia;fontSize=13;fontColor=#667788;labelBackgroundColor=none;spacing=0;spacingBottom=0;spacingTop=-4;fontStyle=3" parent="DKlUDa0g7rmCu-vv5rfz-268" vertex="1">
          <mxGeometry x="620" y="940" width="170" height="20" as="geometry" />
        </mxCell>
        <mxCell id="Pr3LXegyoYwMrFUZYJ9y-19" value="Requires DG or TS" style="text;align=left;verticalAlign=top;resizable=0;points=[];autosize=1;strokeColor=none;fillColor=none;fontFamily=Georgia;fontSize=13;fontColor=#667788;labelBackgroundColor=none;spacing=0;spacingBottom=0;spacingTop=-4;fontStyle=3" parent="DKlUDa0g7rmCu-vv5rfz-268" vertex="1">
          <mxGeometry x="820" y="910" width="130" height="20" as="geometry" />
        </mxCell>
        <mxCell id="Pr3LXegyoYwMrFUZYJ9y-20" value="Requires Shear, or TH" style="text;align=left;verticalAlign=top;resizable=0;points=[];autosize=1;strokeColor=none;fillColor=none;fontFamily=Georgia;fontSize=13;fontColor=#667788;labelBackgroundColor=none;spacing=0;spacingBottom=0;spacingTop=-4;fontStyle=3" parent="DKlUDa0g7rmCu-vv5rfz-268" vertex="1">
          <mxGeometry x="1220" y="1200" width="150" height="20" as="geometry" />
        </mxCell>
        <mxCell id="Pr3LXegyoYwMrFUZYJ9y-21" value="Requires SET or TF" style="text;align=left;verticalAlign=top;resizable=0;points=[];autosize=1;strokeColor=none;fillColor=none;fontFamily=Georgia;fontSize=13;fontColor=#667788;labelBackgroundColor=none;spacing=0;spacingBottom=0;spacingTop=-4;fontStyle=3" parent="DKlUDa0g7rmCu-vv5rfz-268" vertex="1">
          <mxGeometry x="1020" y="180" width="130" height="20" as="geometry" />
        </mxCell>
        <mxCell id="-dR2T00Uhgw3VuPTZwKf-566" value="Transparency" style="locked=1;" parent="0" visible="0" />
        <mxCell id="6rpQLIKWk_AHX--m7qB0-55" value="Spell name text" style="locked=1;" visible="0" parent="0" />
        <mxCell id="6rpQLIKWk_AHX--m7qB0-58" value="Tangled Fate" style="rounded=1;strokeWidth=1;strokeColor=#667788;textShadow=0;labelBackgroundColor=none;whiteSpace=wrap;fontSize=18;fontFamily=Georgia;fillColor=#EBCD00;fontColor=#000000;shadow=1;glass=0;align=center;verticalAlign=middle;fontStyle=1;resizable=1;gradientColor=#B3D56A;gradientDirection=east;" vertex="1" parent="6rpQLIKWk_AHX--m7qB0-55">
          <mxGeometry x="620" y="140" width="160" height="40" as="geometry" />
        </mxCell>
        <mxCell id="6rpQLIKWk_AHX--m7qB0-62" value="Tezirah&#39;s Veil" style="rounded=1;strokeWidth=1;strokeColor=#667788;textShadow=0;labelBackgroundColor=none;whiteSpace=wrap;fontSize=18;fontFamily=Georgia;fillColor=#AAC8EB;fontColor=#000000;shadow=1;glass=0;align=center;verticalAlign=middle;fontStyle=1;resizable=1;gradientColor=#EBCD00;gradientDirection=east;" vertex="1" parent="6rpQLIKWk_AHX--m7qB0-55">
          <mxGeometry x="1020" y="140" width="160" height="40" as="geometry" />
        </mxCell>
        <mxCell id="6rpQLIKWk_AHX--m7qB0-64" value="Mental Blast" style="rounded=1;strokeWidth=1;strokeColor=#667788;textShadow=0;labelBackgroundColor=none;whiteSpace=wrap;fontSize=18;fontFamily=Georgia;fillColor=#EBCD00;fontColor=#000000;shadow=1;glass=0;align=center;verticalAlign=middle;fontStyle=1;resizable=1;" vertex="1" parent="6rpQLIKWk_AHX--m7qB0-55">
          <mxGeometry x="1220" y="1160" width="160" height="40" as="geometry" />
        </mxCell>
        <mxCell id="6rpQLIKWk_AHX--m7qB0-65" value="Saesordian Compass" style="rounded=1;strokeWidth=1;strokeColor=#667788;textShadow=0;labelBackgroundColor=none;whiteSpace=wrap;fontSize=17;fontFamily=Georgia;fillColor=#AAC8EB;fontColor=#000000;shadow=1;glass=0;align=center;verticalAlign=middle;fontStyle=1;resizable=1;" vertex="1" parent="6rpQLIKWk_AHX--m7qB0-55">
          <mxGeometry x="1420" y="110" width="160" height="40" as="geometry" />
        </mxCell>
        <mxCell id="6rpQLIKWk_AHX--m7qB0-66" value="Read the Ripples" style="rounded=1;strokeWidth=1;strokeColor=#667788;textShadow=0;labelBackgroundColor=none;whiteSpace=wrap;fontSize=18;fontFamily=Georgia;fillColor=#B3D56A;fontColor=#000000;shadow=1;glass=0;align=center;verticalAlign=middle;fontStyle=1;resizable=1;gradientColor=none;gradientDirection=east;" vertex="1" parent="6rpQLIKWk_AHX--m7qB0-55">
          <mxGeometry x="1420" y="580" width="160" height="40" as="geometry" />
        </mxCell>
        <mxCell id="6rpQLIKWk_AHX--m7qB0-67" value="Invocation of the Spheres" style="rounded=1;strokeWidth=1;strokeColor=#667788;textShadow=0;labelBackgroundColor=none;whiteSpace=wrap;fontSize=17;fontFamily=Georgia;fillColor=#AAC8EB;fontColor=#000000;shadow=1;glass=0;align=center;verticalAlign=middle;fontStyle=1;resizable=1;spacing=0;" vertex="1" parent="6rpQLIKWk_AHX--m7qB0-55">
          <mxGeometry x="1420" y="500" width="160" height="40" as="geometry" />
        </mxCell>
        <mxCell id="6rpQLIKWk_AHX--m7qB0-68" value="Starlight Sphere" style="rounded=1;strokeWidth=1;strokeColor=#667788;textShadow=0;labelBackgroundColor=none;whiteSpace=wrap;fontSize=18;fontFamily=Georgia;fillColor=#E80538;fontColor=#FFFFFF;shadow=1;glass=0;align=center;verticalAlign=middle;fontStyle=1;resizable=1;gradientColor=none;gradientDirection=east;" vertex="1" parent="6rpQLIKWk_AHX--m7qB0-55">
          <mxGeometry x="1220" y="480" width="160" height="40" as="geometry" />
        </mxCell>
        <mxCell id="6rpQLIKWk_AHX--m7qB0-69" value="Shadewatch Mirror" style="rounded=1;strokeWidth=1;strokeColor=#667788;textShadow=0;labelBackgroundColor=none;whiteSpace=wrap;fontSize=18;fontFamily=Georgia;fillColor=#B3D56A;fontColor=#000000;shadow=1;glass=0;align=center;verticalAlign=middle;fontStyle=1;resizable=1;" vertex="1" parent="6rpQLIKWk_AHX--m7qB0-55">
          <mxGeometry x="1220" y="560" width="160" height="40" as="geometry" />
        </mxCell>
        <mxCell id="6rpQLIKWk_AHX--m7qB0-73" value="Shadows" style="rounded=1;strokeWidth=1;strokeColor=#667788;textShadow=0;labelBackgroundColor=none;whiteSpace=wrap;fontSize=18;fontFamily=Georgia;fillColor=#AAC8EB;fontColor=#000000;shadow=1;glass=0;align=center;verticalAlign=middle;fontStyle=0;resizable=1;" vertex="1" parent="6rpQLIKWk_AHX--m7qB0-55">
          <mxGeometry x="20" y="310" width="160" height="40" as="geometry" />
        </mxCell>
        <mxCell id="6rpQLIKWk_AHX--m7qB0-78" value="Focus Moonbeam" style="rounded=1;strokeWidth=1;strokeColor=#667788;textShadow=0;labelBackgroundColor=none;whiteSpace=wrap;fontSize=18;fontFamily=Georgia;fillColor=#B3D56A;fontColor=#000000;shadow=1;glass=0;align=center;verticalAlign=middle;fontStyle=1;resizable=1;" vertex="1" parent="6rpQLIKWk_AHX--m7qB0-55">
          <mxGeometry x="220" y="350" width="160" height="40" as="geometry" />
        </mxCell>
        <mxCell id="6rpQLIKWk_AHX--m7qB0-83" value="Dinazen Olkar" style="rounded=1;strokeWidth=1;strokeColor=#667788;textShadow=0;labelBackgroundColor=none;whiteSpace=wrap;fontSize=18;fontFamily=Georgia;fillColor=#E80538;fontColor=#FFFFFF;shadow=1;glass=0;align=center;verticalAlign=middle;fontStyle=0;resizable=1;gradientColor=none;gradientDirection=east;" vertex="1" parent="6rpQLIKWk_AHX--m7qB0-55">
          <mxGeometry x="420" y="240" width="160" height="40" as="geometry" />
        </mxCell>
        <mxCell id="6rpQLIKWk_AHX--m7qB0-87" value="Burn" style="rounded=1;strokeWidth=1;strokeColor=#667788;textShadow=0;labelBackgroundColor=none;whiteSpace=wrap;fontSize=18;fontFamily=Georgia;fillColor=#E80538;fontColor=#FFFFFF;shadow=1;glass=0;align=center;verticalAlign=middle;fontStyle=0;resizable=1;gradientColor=none;gradientDirection=east;" vertex="1" parent="6rpQLIKWk_AHX--m7qB0-55">
          <mxGeometry x="620" y="350" width="160" height="40" as="geometry" />
        </mxCell>
        <mxCell id="6rpQLIKWk_AHX--m7qB0-90" value="Dazzle" style="rounded=1;strokeWidth=1;strokeColor=#667788;textShadow=0;labelBackgroundColor=none;whiteSpace=wrap;fontSize=18;fontFamily=Georgia;fillColor=#EBCD00;fontColor=#000000;shadow=1;glass=0;align=center;verticalAlign=middle;fontStyle=0;resizable=1;" vertex="1" parent="6rpQLIKWk_AHX--m7qB0-55">
          <mxGeometry x="420" y="310" width="160" height="40" as="geometry" />
        </mxCell>
        <mxCell id="6rpQLIKWk_AHX--m7qB0-92" value="Refractive Field" style="rounded=1;strokeWidth=1;strokeColor=#667788;textShadow=0;labelBackgroundColor=none;whiteSpace=wrap;fontSize=18;fontFamily=Georgia;fillColor=#B3D56A;fontColor=#000000;shadow=1;glass=0;align=center;verticalAlign=middle;fontStyle=1;resizable=1;" vertex="1" parent="6rpQLIKWk_AHX--m7qB0-55">
          <mxGeometry x="620" y="270" width="160" height="40" as="geometry" />
        </mxCell>
        <mxCell id="6rpQLIKWk_AHX--m7qB0-93" value="Shadow Web" style="rounded=1;strokeWidth=1;strokeColor=#667788;textShadow=0;labelBackgroundColor=none;whiteSpace=wrap;fontSize=18;fontFamily=Georgia;fillColor=#EBCD00;fontColor=#000000;shadow=1;glass=0;align=center;verticalAlign=middle;fontStyle=1;resizable=1;" vertex="1" parent="6rpQLIKWk_AHX--m7qB0-55">
          <mxGeometry x="1020" y="240" width="160" height="40" as="geometry" />
        </mxCell>
        <mxCell id="6rpQLIKWk_AHX--m7qB0-94" value="Shift Moonbeam" style="rounded=1;strokeWidth=1;strokeColor=#667788;textShadow=0;labelBackgroundColor=none;whiteSpace=wrap;fontSize=18;fontFamily=Georgia;fillColor=#B3D56A;fontColor=#000000;shadow=1;glass=0;align=center;verticalAlign=middle;fontStyle=1;resizable=1;" vertex="1" parent="6rpQLIKWk_AHX--m7qB0-55">
          <mxGeometry x="820" y="380" width="160" height="40" as="geometry" />
        </mxCell>
        <mxCell id="6rpQLIKWk_AHX--m7qB0-97" value="Moonblade" style="rounded=1;strokeWidth=1;strokeColor=#667788;textShadow=0;labelBackgroundColor=none;whiteSpace=wrap;fontSize=18;fontFamily=Georgia;fillColor=#B3D56A;fontColor=#000000;shadow=1;glass=0;align=center;verticalAlign=middle;fontStyle=1;resizable=1;" vertex="1" parent="6rpQLIKWk_AHX--m7qB0-55">
          <mxGeometry x="1020" y="310" width="160" height="40" as="geometry" />
        </mxCell>
        <mxCell id="6rpQLIKWk_AHX--m7qB0-98" value="Steps of Vuan" style="rounded=1;strokeWidth=1;strokeColor=#667788;textShadow=0;labelBackgroundColor=none;whiteSpace=wrap;fontSize=18;fontFamily=Georgia;fillColor=#B3D56A;fontColor=#000000;shadow=1;glass=0;align=center;verticalAlign=middle;fontStyle=1;resizable=1;" vertex="1" parent="6rpQLIKWk_AHX--m7qB0-55">
          <mxGeometry x="820" y="270" width="160" height="40" as="geometry" />
        </mxCell>
        <mxCell id="6rpQLIKWk_AHX--m7qB0-99" value="Iyqaromos Fire-Lens" style="rounded=1;whiteSpace=wrap;fillColor=#D5D0CA;labelBackgroundColor=none;movable=1;resizable=1;rotatable=1;deletable=1;editable=1;locked=0;connectable=1;container=0;fontFamily=Georgia;fontSize=18;strokeColor=#667788;shadow=0;glass=0;strokeWidth=1;align=center;fontStyle=1;verticalAlign=middle;fontColor=#000000;textShadow=0;" vertex="1" parent="6rpQLIKWk_AHX--m7qB0-55">
          <mxGeometry x="1220" y="350" width="160" height="40" as="geometry" />
        </mxCell>
        <mxCell id="6rpQLIKWk_AHX--m7qB0-100" value="Shape Moonblade" style="rounded=1;whiteSpace=wrap;fillColor=#D5D0CA;labelBackgroundColor=none;movable=1;resizable=1;rotatable=1;deletable=1;editable=1;locked=0;connectable=1;container=0;fontFamily=Georgia;fontSize=18;strokeColor=#667788;shadow=0;glass=0;strokeWidth=1;align=center;fontStyle=1;verticalAlign=middle;fontColor=#000000;textShadow=0;" vertex="1" parent="6rpQLIKWk_AHX--m7qB0-55">
          <mxGeometry x="1420" y="310" width="160" height="40" as="geometry" />
        </mxCell>
        <mxCell id="6rpQLIKWk_AHX--m7qB0-101" value="Partial Displacement" style="rounded=1;strokeWidth=1;strokeColor=#667788;textShadow=0;labelBackgroundColor=none;whiteSpace=wrap;fontSize=18;fontFamily=Georgia;fillColor=#E80538;fontColor=#FFFFFF;shadow=1;glass=0;align=center;verticalAlign=middle;fontStyle=0;resizable=1;gradientColor=none;gradientDirection=east;" vertex="1" parent="6rpQLIKWk_AHX--m7qB0-55">
          <mxGeometry x="420" y="680" width="160" height="40" as="geometry" />
        </mxCell>
        <mxCell id="6rpQLIKWk_AHX--m7qB0-104" value="Teleport" style="rounded=1;strokeWidth=1;strokeColor=#667788;textShadow=0;labelBackgroundColor=none;whiteSpace=wrap;fontSize=18;fontFamily=Georgia;fillColor=#B3D56A;fontColor=#000000;shadow=1;glass=0;align=center;verticalAlign=middle;fontStyle=1;resizable=1;" vertex="1" parent="6rpQLIKWk_AHX--m7qB0-55">
          <mxGeometry x="620" y="680" width="160" height="40" as="geometry" />
        </mxCell>
        <mxCell id="6rpQLIKWk_AHX--m7qB0-106" value="Whole Displacement" style="rounded=1;whiteSpace=wrap;fillColor=#147A6D;labelBackgroundColor=none;movable=1;resizable=1;rotatable=1;deletable=1;editable=1;locked=0;connectable=1;container=0;fontFamily=Georgia;fontSize=17;strokeColor=#667788;shadow=1;glass=0;strokeWidth=1;align=center;fontStyle=1;verticalAlign=middle;fontColor=#FFFFFF;textShadow=0;" vertex="1" parent="6rpQLIKWk_AHX--m7qB0-55">
          <mxGeometry x="420" y="740" width="160" height="40" as="geometry" />
        </mxCell>
        <mxCell id="6rpQLIKWk_AHX--m7qB0-108" value="Braun&#39;s Conjecture" style="rounded=1;strokeWidth=1;strokeColor=#667788;textShadow=0;labelBackgroundColor=none;whiteSpace=wrap;fontSize=18;fontFamily=Georgia;fillColor=#B3D56A;fontColor=#000000;shadow=1;glass=0;align=center;verticalAlign=middle;fontStyle=1;resizable=1;" vertex="1" parent="6rpQLIKWk_AHX--m7qB0-55">
          <mxGeometry x="1020" y="680" width="160" height="40" as="geometry" />
        </mxCell>
        <mxCell id="6rpQLIKWk_AHX--m7qB0-114" value="Moongate" style="rounded=1;strokeWidth=1;strokeColor=#667788;textShadow=0;labelBackgroundColor=none;whiteSpace=wrap;fontSize=18;fontFamily=Georgia;fillColor=#B3D56A;fontColor=#000000;shadow=1;glass=0;align=center;verticalAlign=middle;fontStyle=1;resizable=1;" vertex="1" parent="6rpQLIKWk_AHX--m7qB0-55">
          <mxGeometry x="820" y="680" width="160" height="40" as="geometry" />
        </mxCell>
        <mxCell id="6rpQLIKWk_AHX--m7qB0-115" value="Contingency" style="rounded=1;strokeWidth=1;strokeColor=#667788;textShadow=0;labelBackgroundColor=none;whiteSpace=wrap;fontSize=18;fontFamily=Georgia;fillColor=#B3D56A;fontColor=#000000;shadow=1;glass=0;align=center;verticalAlign=middle;fontStyle=1;resizable=1;" vertex="1" parent="6rpQLIKWk_AHX--m7qB0-55">
          <mxGeometry x="820" y="740" width="160" height="40" as="geometry" />
        </mxCell>
        <mxCell id="6rpQLIKWk_AHX--m7qB0-116" value="Shadowling" style="rounded=1;strokeWidth=1;strokeColor=#667788;textShadow=0;labelBackgroundColor=none;whiteSpace=wrap;fontSize=18;fontFamily=Georgia;fillColor=#B3D56A;fontColor=#000000;shadow=1;glass=0;align=center;verticalAlign=middle;fontStyle=1;resizable=1;" vertex="1" parent="6rpQLIKWk_AHX--m7qB0-55">
          <mxGeometry x="1020" y="740" width="160" height="40" as="geometry" />
        </mxCell>
        <mxCell id="6rpQLIKWk_AHX--m7qB0-117" value="Shadow Servant" style="rounded=1;strokeWidth=1;strokeColor=#667788;textShadow=0;labelBackgroundColor=none;whiteSpace=wrap;fontSize=18;fontFamily=Georgia;fillColor=#B3D56A;fontColor=#000000;shadow=1;glass=0;align=center;verticalAlign=middle;fontStyle=1;resizable=1;" vertex="1" parent="6rpQLIKWk_AHX--m7qB0-55">
          <mxGeometry x="1220" y="740" width="160" height="40" as="geometry" />
        </mxCell>
        <mxCell id="6rpQLIKWk_AHX--m7qB0-118" value="Esoteric" style="text;align=center;verticalAlign=middle;resizable=0;points=[];autosize=0;strokeColor=none;fillColor=none;fontFamily=Helvetica;fontSize=18;fontColor=#667788;labelBackgroundColor=none;textShadow=1;" vertex="1" parent="6rpQLIKWk_AHX--m7qB0-55">
          <mxGeometry x="1640" width="120" height="40" as="geometry" />
        </mxCell>
        <mxCell id="6rpQLIKWk_AHX--m7qB0-119" value="Riftal Summons" style="rounded=1;strokeWidth=1;strokeColor=#667788;textShadow=0;labelBackgroundColor=none;whiteSpace=wrap;fontSize=18;fontFamily=Georgia;fillColor=#B3D56A;fontColor=#000000;shadow=1;glass=0;align=center;verticalAlign=middle;fontStyle=1;resizable=1;" vertex="1" parent="6rpQLIKWk_AHX--m7qB0-55">
          <mxGeometry x="1620" y="710" width="160" height="40" as="geometry" />
        </mxCell>
        <mxCell id="6rpQLIKWk_AHX--m7qB0-120" value="Ripplegate Theory" style="rounded=1;whiteSpace=wrap;fillColor=#D5D0CA;labelBackgroundColor=none;movable=1;resizable=1;rotatable=1;deletable=1;editable=1;locked=0;connectable=1;container=0;fontFamily=Georgia;fontSize=18;strokeColor=#667788;shadow=0;glass=0;strokeWidth=1;align=center;fontStyle=1;verticalAlign=middle;fontColor=#000000;textShadow=0;" vertex="1" parent="6rpQLIKWk_AHX--m7qB0-55">
          <mxGeometry x="1220" y="680" width="160" height="40" as="geometry" />
        </mxCell>
        <mxCell id="6rpQLIKWk_AHX--m7qB0-124" value="Clear Vision" style="rounded=1;strokeWidth=1;strokeColor=#667788;textShadow=0;labelBackgroundColor=none;whiteSpace=wrap;fontSize=18;fontFamily=Georgia;fillColor=#AAC8EB;fontColor=#000000;shadow=1;glass=0;align=center;verticalAlign=middle;fontStyle=0;resizable=1;" vertex="1" parent="6rpQLIKWk_AHX--m7qB0-55">
          <mxGeometry x="220" y="900" width="160" height="40" as="geometry" />
        </mxCell>
        <mxCell id="6rpQLIKWk_AHX--m7qB0-127" value="Artificer&#39;s Eye" style="rounded=1;strokeWidth=1;strokeColor=#667788;textShadow=0;labelBackgroundColor=none;whiteSpace=wrap;fontSize=18;fontFamily=Georgia;fillColor=#AAC8EB;fontColor=#000000;shadow=1;glass=0;align=center;verticalAlign=middle;fontStyle=0;resizable=1;" vertex="1" parent="6rpQLIKWk_AHX--m7qB0-55">
          <mxGeometry x="420" y="900" width="160" height="40" as="geometry" />
        </mxCell>
        <mxCell id="6rpQLIKWk_AHX--m7qB0-131" value="Aura Sight" style="rounded=1;strokeWidth=1;strokeColor=#667788;textShadow=0;labelBackgroundColor=none;whiteSpace=wrap;fontSize=18;fontFamily=Georgia;fillColor=#AAC8EB;fontColor=#000000;shadow=1;glass=0;align=center;verticalAlign=middle;fontStyle=0;resizable=1;" vertex="1" parent="6rpQLIKWk_AHX--m7qB0-55">
          <mxGeometry x="420" y="960" width="160" height="40" as="geometry" />
        </mxCell>
        <mxCell id="6rpQLIKWk_AHX--m7qB0-133" value="Tenebrous Sense" style="rounded=1;strokeWidth=1;strokeColor=#667788;textShadow=0;labelBackgroundColor=none;whiteSpace=wrap;fontSize=18;fontFamily=Georgia;fillColor=#AAC8EB;fontColor=#000000;shadow=1;glass=0;align=center;verticalAlign=middle;fontStyle=0;resizable=1;" vertex="1" parent="6rpQLIKWk_AHX--m7qB0-55">
          <mxGeometry x="620" y="900" width="160" height="40" as="geometry" />
        </mxCell>
        <mxCell id="6rpQLIKWk_AHX--m7qB0-137" value="Piercing Gaze" style="rounded=1;strokeWidth=1;strokeColor=#667788;textShadow=0;labelBackgroundColor=none;whiteSpace=wrap;fontSize=18;fontFamily=Georgia;fillColor=#B3D56A;fontColor=#000000;shadow=1;glass=0;align=center;verticalAlign=middle;fontStyle=0;resizable=1;" vertex="1" parent="6rpQLIKWk_AHX--m7qB0-55">
          <mxGeometry x="420" y="840" width="160" height="40" as="geometry" />
        </mxCell>
        <mxCell id="6rpQLIKWk_AHX--m7qB0-140" value="Distant Gaze" style="rounded=1;strokeWidth=1;strokeColor=#667788;textShadow=0;labelBackgroundColor=none;whiteSpace=wrap;fontSize=18;fontFamily=Georgia;fillColor=#B3D56A;fontColor=#000000;shadow=1;glass=0;align=center;verticalAlign=middle;fontStyle=1;resizable=1;" vertex="1" parent="6rpQLIKWk_AHX--m7qB0-55">
          <mxGeometry x="620" y="840" width="160" height="40" as="geometry" />
        </mxCell>
        <mxCell id="6rpQLIKWk_AHX--m7qB0-141" value="Destiny Cipher" style="rounded=1;strokeWidth=1;strokeColor=#667788;textShadow=0;labelBackgroundColor=none;whiteSpace=wrap;fontSize=18;fontFamily=Georgia;fillColor=#B3D56A;fontColor=#000000;shadow=1;glass=0;align=center;verticalAlign=middle;fontStyle=1;resizable=1;" vertex="1" parent="6rpQLIKWk_AHX--m7qB0-55">
          <mxGeometry x="620" y="990" width="160" height="40" as="geometry" />
        </mxCell>
        <mxCell id="6rpQLIKWk_AHX--m7qB0-142" value="Unleash" style="rounded=1;strokeWidth=1;strokeColor=#667788;textShadow=0;labelBackgroundColor=none;whiteSpace=wrap;fontSize=18;fontFamily=Georgia;fillColor=#B3D56A;fontColor=#000000;shadow=1;glass=0;align=center;verticalAlign=middle;fontStyle=0;resizable=1;" vertex="1" parent="6rpQLIKWk_AHX--m7qB0-55">
          <mxGeometry x="1020" y="900" width="160" height="40" as="geometry" />
        </mxCell>
        <mxCell id="6rpQLIKWk_AHX--m7qB0-143" value="Machinist&#39;s Touch" style="rounded=1;strokeWidth=1;strokeColor=#667788;textShadow=0;labelBackgroundColor=none;whiteSpace=wrap;fontSize=18;fontFamily=Georgia;fillColor=#AAC8EB;fontColor=#000000;shadow=1;glass=0;align=center;verticalAlign=middle;fontStyle=0;resizable=1;" vertex="1" parent="6rpQLIKWk_AHX--m7qB0-55">
          <mxGeometry x="820" y="870" width="160" height="40" as="geometry" />
        </mxCell>
        <mxCell id="6rpQLIKWk_AHX--m7qB0-146" value="Seer&#39;s Sense" style="rounded=1;strokeWidth=1;strokeColor=#667788;textShadow=0;labelBackgroundColor=none;whiteSpace=wrap;fontSize=18;fontFamily=Georgia;fillColor=#AAC8EB;fontColor=#000000;shadow=1;glass=0;align=center;verticalAlign=middle;fontStyle=1;resizable=1;gradientColor=#B3D56A;gradientDirection=east;" vertex="1" parent="6rpQLIKWk_AHX--m7qB0-55">
          <mxGeometry x="820" y="970" width="160" height="40" as="geometry" />
        </mxCell>
        <mxCell id="6rpQLIKWk_AHX--m7qB0-150" value="Calm" style="rounded=1;strokeWidth=1;strokeColor=#667788;textShadow=0;labelBackgroundColor=none;whiteSpace=wrap;fontSize=18;fontFamily=Georgia;fillColor=#EBCD00;fontColor=#000000;shadow=1;glass=0;align=center;verticalAlign=middle;fontStyle=0;resizable=1;" vertex="1" parent="6rpQLIKWk_AHX--m7qB0-55">
          <mxGeometry x="220" y="1190" width="160" height="40" as="geometry" />
        </mxCell>
        <mxCell id="6rpQLIKWk_AHX--m7qB0-153" value="Telekinetic Throw" style="rounded=1;strokeWidth=1;strokeColor=#667788;textShadow=0;labelBackgroundColor=none;whiteSpace=wrap;fontSize=18;fontFamily=Georgia;fillColor=#E80538;fontColor=#FFFFFF;shadow=1;glass=0;align=center;verticalAlign=middle;fontStyle=0;resizable=1;gradientColor=none;gradientDirection=east;" vertex="1" parent="6rpQLIKWk_AHX--m7qB0-55">
          <mxGeometry x="220" y="1130" width="160" height="40" as="geometry" />
        </mxCell>
        <mxCell id="6rpQLIKWk_AHX--m7qB0-156" value="Psychic Shield" style="rounded=1;whiteSpace=wrap;fillColor=#147A6D;labelBackgroundColor=none;movable=1;resizable=1;rotatable=1;deletable=1;editable=1;locked=0;connectable=1;container=0;fontFamily=Georgia;fontSize=18;strokeColor=#667788;shadow=1;glass=0;strokeWidth=1;align=center;fontStyle=0;verticalAlign=middle;fontColor=#FFFFFF;textShadow=0;" vertex="1" parent="6rpQLIKWk_AHX--m7qB0-55">
          <mxGeometry x="620" y="1190" width="160" height="40" as="geometry" />
        </mxCell>
        <mxCell id="6rpQLIKWk_AHX--m7qB0-158" value="Sleep" style="rounded=1;strokeWidth=1;strokeColor=#667788;textShadow=0;labelBackgroundColor=none;whiteSpace=wrap;fontSize=18;fontFamily=Georgia;fillColor=#EBCD00;fontColor=#000000;shadow=1;glass=0;align=center;verticalAlign=middle;fontStyle=0;resizable=1;" vertex="1" parent="6rpQLIKWk_AHX--m7qB0-55">
          <mxGeometry x="410" y="1220" width="160" height="40" as="geometry" />
        </mxCell>
        <mxCell id="6rpQLIKWk_AHX--m7qB0-160" value="Rend" style="rounded=1;strokeWidth=1;strokeColor=#667788;textShadow=0;labelBackgroundColor=none;whiteSpace=wrap;fontSize=18;fontFamily=Georgia;fillColor=#EBCD00;fontColor=#000000;shadow=1;glass=0;align=center;verticalAlign=middle;fontStyle=0;resizable=1;gradientColor=#B3D56A;gradientDirection=east;" vertex="1" parent="6rpQLIKWk_AHX--m7qB0-55">
          <mxGeometry x="620" y="1130" width="160" height="40" as="geometry" />
        </mxCell>
        <mxCell id="6rpQLIKWk_AHX--m7qB0-162" value="Telekinetic Storm" style="rounded=1;strokeWidth=1;strokeColor=#667788;textShadow=0;labelBackgroundColor=none;whiteSpace=wrap;fontSize=18;fontFamily=Georgia;fillColor=#E80538;fontColor=#FFFFFF;shadow=1;glass=0;align=center;verticalAlign=middle;fontStyle=0;resizable=1;gradientColor=none;gradientDirection=east;" vertex="1" parent="6rpQLIKWk_AHX--m7qB0-55">
          <mxGeometry x="820" y="1090" width="160" height="40" as="geometry" />
        </mxCell>
        <mxCell id="6rpQLIKWk_AHX--m7qB0-164" value="Thoughtcast" style="rounded=1;strokeWidth=1;strokeColor=#667788;textShadow=0;labelBackgroundColor=none;whiteSpace=wrap;fontSize=18;fontFamily=Georgia;fillColor=#B3D56A;fontColor=#000000;shadow=1;glass=0;align=center;verticalAlign=middle;fontStyle=0;resizable=1;" vertex="1" parent="6rpQLIKWk_AHX--m7qB0-55">
          <mxGeometry x="1020" y="1190" width="160" height="40" as="geometry" />
        </mxCell>
        <mxCell id="6rpQLIKWk_AHX--m7qB0-165" value="Mind Shout" style="rounded=1;strokeWidth=1;strokeColor=#667788;textShadow=0;labelBackgroundColor=none;whiteSpace=wrap;fontSize=18;fontFamily=Georgia;fillColor=#EBCD00;fontColor=#000000;shadow=1;glass=0;align=center;verticalAlign=middle;fontStyle=1;resizable=1;" vertex="1" parent="6rpQLIKWk_AHX--m7qB0-55">
          <mxGeometry x="1420" y="1160" width="160" height="40" as="geometry" />
        </mxCell>
        <mxCell id="6rpQLIKWk_AHX--m7qB0-166" value="Telekinetic Shield" style="rounded=1;whiteSpace=wrap;fillColor=#147A6D;labelBackgroundColor=none;movable=1;resizable=1;rotatable=1;deletable=1;editable=1;locked=0;connectable=1;container=0;fontFamily=Georgia;fontSize=18;strokeColor=#667788;shadow=1;glass=0;strokeWidth=1;align=center;fontStyle=0;verticalAlign=middle;fontColor=#FFFFFF;textShadow=0;" vertex="1" parent="6rpQLIKWk_AHX--m7qB0-55">
          <mxGeometry x="1220" y="1090" width="160" height="40" as="geometry" />
        </mxCell>
        <mxCell id="6rpQLIKWk_AHX--m7qB0-168" value="Shear" style="rounded=1;whiteSpace=wrap;fillColor=#147A6D;labelBackgroundColor=none;movable=1;resizable=1;rotatable=1;deletable=1;editable=1;locked=0;connectable=1;container=0;fontFamily=Georgia;fontSize=18;strokeColor=#667788;shadow=1;glass=0;strokeWidth=1;align=center;fontStyle=0;verticalAlign=middle;fontColor=#FFFFFF;textShadow=0;" vertex="1" parent="6rpQLIKWk_AHX--m7qB0-55">
          <mxGeometry x="1020" y="1130" width="160" height="40" as="geometry" />
        </mxCell>
        <mxCell id="6rpQLIKWk_AHX--m7qB0-170" value="Sovereign Destiny" style="rounded=1;strokeWidth=1;strokeColor=#667788;textShadow=0;labelBackgroundColor=none;whiteSpace=wrap;fontSize=18;fontFamily=Georgia;fillColor=#EBCD00;fontColor=#000000;shadow=1;glass=0;align=center;verticalAlign=middle;fontStyle=1;resizable=1;" vertex="1" parent="6rpQLIKWk_AHX--m7qB0-55">
          <mxGeometry x="820" y="80" width="160" height="40" as="geometry" />
        </mxCell>
        <mxCell id="6rpQLIKWk_AHX--m7qB0-171" value="Cage of Light" style="rounded=1;whiteSpace=wrap;fillColor=#147A6D;labelBackgroundColor=none;movable=1;resizable=1;rotatable=1;deletable=1;editable=1;locked=0;connectable=1;container=0;fontFamily=Georgia;fontSize=18;strokeColor=#667788;shadow=1;glass=0;strokeWidth=1;align=center;fontStyle=0;verticalAlign=middle;fontColor=#FFFFFF;textShadow=0;" vertex="1" parent="6rpQLIKWk_AHX--m7qB0-55">
          <mxGeometry x="1020" y="380" width="160" height="40" as="geometry" />
        </mxCell>
        <mxCell id="6rpQLIKWk_AHX--m7qB0-176" value="Locate" style="rounded=1;strokeWidth=1;strokeColor=#667788;textShadow=0;labelBackgroundColor=none;whiteSpace=wrap;fontSize=18;fontFamily=Georgia;fillColor=#B3D56A;fontColor=#000000;shadow=1;glass=0;align=center;verticalAlign=middle;fontStyle=1;resizable=1;" vertex="1" parent="6rpQLIKWk_AHX--m7qB0-55">
          <mxGeometry x="1020" y="840" width="160" height="40" as="geometry" />
        </mxCell>
        <mxCell id="6rpQLIKWk_AHX--m7qB0-177" value="Empower Moonblade" style="rounded=1;whiteSpace=wrap;fillColor=#D5D0CA;labelBackgroundColor=none;movable=1;resizable=1;rotatable=1;deletable=1;editable=1;locked=0;connectable=1;container=0;fontFamily=Georgia;fontSize=18;strokeColor=#667788;shadow=0;glass=0;strokeWidth=1;align=center;fontStyle=1;verticalAlign=middle;fontColor=#000000;textShadow=0;" vertex="1" parent="6rpQLIKWk_AHX--m7qB0-55">
          <mxGeometry x="1420" y="1090" width="160" height="40" as="geometry" />
        </mxCell>
        <mxCell id="6rpQLIKWk_AHX--m7qB0-179" value="Hypnotize" style="rounded=1;whiteSpace=wrap;fillColor=#D5D0CA;labelBackgroundColor=none;movable=1;resizable=1;rotatable=1;deletable=1;editable=1;locked=0;connectable=1;container=0;fontFamily=Georgia;fontSize=18;strokeColor=#667788;shadow=0;glass=0;strokeWidth=1;align=center;fontStyle=0;verticalAlign=middle;fontColor=#000000;textShadow=0;" vertex="1" parent="6rpQLIKWk_AHX--m7qB0-55">
          <mxGeometry x="1020" y="1250" width="160" height="40" as="geometry" />
        </mxCell>
        <mxCell id="6rpQLIKWk_AHX--m7qB0-180" value="Sever Thread" style="rounded=1;strokeWidth=1;strokeColor=#667788;textShadow=0;labelBackgroundColor=none;whiteSpace=wrap;fontSize=18;fontFamily=Georgia;fillColor=#EBCD00;fontColor=#000000;shadow=1;glass=0;align=center;verticalAlign=middle;fontStyle=1;resizable=1;" vertex="1" parent="6rpQLIKWk_AHX--m7qB0-55">
          <mxGeometry x="420" y="80" width="160" height="40" as="geometry" />
        </mxCell>
      </root>
    </mxGraphModel>
  </diagram>
</mxfile>
